<?xml version="1.0" standalone="no"?>
<!DOCTYPE svg PUBLIC "-//W3C//DTD SVG 20010904//EN"
 "http://www.w3.org/TR/2001/REC-SVG-20010904/DTD/svg10.dtd">
<svg version="1.0" xmlns="http://www.w3.org/2000/svg"
 width="126.000000pt" height="126.000000pt" viewBox="0 0 126.000000 126.000000"
 preserveAspectRatio="xMidYMid meet">
<metadata>
Created by potrace 1.11, written by Peter Selinger 2001-2013
</metadata>
<g transform="translate(0.000000,126.000000) scale(0.100000,-0.100000)"
fill="#000000" stroke="none">
<path d="M175 1001 c-49 -22 -93 -66 -102 -98 -3 -14 -3 -61 0 -104 7 -92 -3
-123 -45 -141 -38 -17 -35 -42 7 -67 39 -22 39 -25 36 -143 -3 -93 14 -135 68
-171 49 -32 118 -45 118 -22 0 9 -10 20 -21 25 -30 12 -66 48 -67 68 -1 9 0
35 2 57 1 22 3 64 3 93 1 50 -2 56 -40 92 l-42 39 35 31 c19 17 38 42 43 56 8
21 6 82 -4 149 -6 37 24 92 58 109 37 17 44 46 12 46 -12 0 -39 -9 -61 -19z"/>
<path d="M962 1003 c2 -9 11 -17 20 -19 30 -4 78 -44 84 -70 4 -13 3 -57 0
-97 -8 -85 0 -112 48 -159 l35 -34 -29 -19 c-50 -34 -61 -64 -58 -163 2 -60
-1 -97 -10 -114 -16 -28 -67 -62 -82 -53 -6 3 -10 -3 -10 -14 0 -15 6 -21 23
-21 45 0 114 31 148 66 34 35 34 36 35 132 0 53 4 107 8 119 4 12 25 30 47 39
46 21 52 49 12 57 -62 13 -68 26 -65 136 3 115 -7 144 -60 184 -60 44 -153 64
-146 30z"/>
<path d="M592 807 c-36 -40 -62 -109 -76 -204 -3 -17 -31 -31 -53 -27 -7 1
-17 2 -23 3 -5 0 -19 10 -30 21 -16 16 -20 33 -20 84 0 57 -3 65 -25 80 -13 9
-26 16 -28 16 -2 0 -4 -39 -4 -87 0 -49 -5 -104 -10 -123 -5 -19 -7 -46 -3
-60 6 -23 10 -25 56 -21 49 4 110 5 152 2 14 0 29 -13 40 -31 14 -25 23 -30
55 -30 24 0 37 5 37 13 0 8 9 22 20 32 22 20 91 24 188 12 38 -5 44 -3 51 16
5 12 4 37 -2 57 -5 19 -10 77 -10 128 0 50 -2 92 -4 92 -2 0 -15 -7 -28 -16
-22 -14 -25 -24 -25 -78 0 -34 -6 -69 -14 -78 -17 -23 -56 -36 -85 -29 -22 6
-27 16 -37 74 -14 74 -46 140 -80 162 -19 12 -24 12 -42 -8z m37 -139 c-5 -39
1 -49 23 -42 20 6 21 5 9 -10 -11 -13 -11 -19 0 -32 12 -15 11 -16 -9 -10 -20
7 -22 4 -22 -35 0 -23 -3 -39 -7 -35 -9 8 -10 14 -12 50 -1 20 -5 23 -23 18
-21 -5 -22 -4 -9 11 11 14 11 20 0 33 -12 15 -11 16 7 10 18 -5 22 -2 27 24 6
29 20 44 16 18z"/>
<path d="M604 609 c-10 -17 13 -36 27 -22 12 12 4 33 -11 33 -5 0 -12 -5 -16
-11z"/>
</g>
</svg>
