<?xml version="1.0" encoding="UTF-8" standalone="no"?>
<svg width="73px" height="70px" viewBox="0 0 73 70" version="1.1" xmlns="http://www.w3.org/2000/svg" xmlns:xlink="http://www.w3.org/1999/xlink" xmlns:sketch="http://www.bohemiancoding.com/sketch/ns">
    <!-- Generator: Sketch 3.4.1 (15681) - http://www.bohemiancoding.com/sketch -->
    <title>thin-0401_graph_growth_money_stock_inflation</title>
    <desc>Created with Sketch.</desc>
    <defs></defs>
    <g id="Page-1" stroke="none" stroke-width="1" fill="none" fill-rule="evenodd" sketch:type="MSPage">
        <g id="thin-0401_graph_growth_money_stock_inflation" sketch:type="MSLayerGroup" transform="translate(0.000000, -2.000000)">
            <g id="Group" transform="translate(2.000000, 3.989899)" stroke="#70A0F7" stroke-width="3" sketch:type="MSShapeGroup">
                <path d="M36.8617,8.17540202 L44.4487,0.669260606 L52.0357,8.17540202" id="Shape"></path>
                <path d="M4.801,45.146998 C4.801,45.146998 44.4481,43.9286141 44.4481,7.88179394 L44.4487,0.669559596" id="Shape"></path>
                <ellipse id="Oval" cx="13.3303" cy="16.8553778" rx="13.2474" ry="13.202796"></ellipse>
                <path d="M8.5528,21.8685414 C9.838,22.9834747 11.8201,23.8209455 13.2508,23.8209455 C15.5398,23.8209455 17.3956,22.2040081 17.3956,20.2091475 C17.3956,18.2142869 15.4141,17.2276202 13.2508,16.5973495 C11.0086,15.8971152 9.106,14.9804121 9.106,12.9855515 C9.106,10.9906909 10.9618,9.37375354 13.2508,9.37375354 C14.7922,9.37375354 16.1371,10.1068768 16.8511,11.194901" id="Shape"></path>
                <path d="M13.2508,7.40012121 L13.2508,9.37375354" id="Shape"></path>
                <path d="M13.2508,23.8206465 L13.2508,25.7945778" id="Shape"></path>
                <rect id="Rectangle-path" fill="#70A0F7" x="62.6545" y="3.48484848" width="6" height="62.7878788"></rect>
                <rect id="Rectangle-path" fill="#70A0F7" x="47.6536" y="30.3957333" width="6" height="35.8769939"></rect>
                <rect id="Rectangle-path" fill="#70A0F7" x="32.6527" y="45.3461253" width="6" height="20.926602"></rect>
                <rect id="Rectangle-path" fill="#70A0F7" x="17.6518" y="54.3164202" width="6" height="11.9563071"></rect>
                <rect id="Rectangle-path" fill="#70A0F7" x="2.6506" y="57.3066182" width="6" height="8.96640808"></rect>
            </g>
            <rect id="Rectangle-path" sketch:type="MSShapeGroup" x="0" y="0" width="72" height="71.7575758"></rect>
        </g>
    </g>
</svg>