<?xml version="1.0" encoding="UTF-8" standalone="no"?>
<svg width="44px" height="52px" viewBox="0 0 44 52" version="1.1" xmlns="http://www.w3.org/2000/svg" xmlns:xlink="http://www.w3.org/1999/xlink" xmlns:sketch="http://www.bohemiancoding.com/sketch/ns">
    <!-- Generator: Sketch 3.3.1 (12002) - http://www.bohemiancoding.com/sketch -->
    <title>ico_Android</title>
    <desc>Created with Sketch.</desc>
    <defs></defs>
    <g id="Page-1" stroke="none" stroke-width="1" fill="none" fill-rule="evenodd" sketch:type="MSPage">
        <g id="Home" sketch:type="MSArtboardGroup" transform="translate(-362.000000, -866.000000)" stroke="#00D081" stroke-width="2">
            <g id="Caracteristicas" sketch:type="MSLayerGroup" transform="translate(0.000000, 648.000000)">
                <path d="M366.962082,235.459903 C365.326526,235.459903 364.0006,236.616588 364.0006,238.045436 L364.0006,249.110867 C364.0006,250.539714 365.326526,251.699358 366.962082,251.699358 C368.596156,251.699358 369.923563,250.539714 369.923563,249.110867 L369.923563,238.045436 C369.923563,236.616588 368.596156,235.459903 366.962082,235.459903 L366.962082,235.459903 Z M391.95023,222.060392 C392.27023,221.742377 392.27023,221.226158 391.95023,220.909622 C391.631711,220.590129 391.114674,220.590129 390.794674,220.909622 L387.608008,224.082373 C386.47023,223.804295 385.265785,223.650465 384.016896,223.650465 C382.782822,223.650465 381.593193,223.802816 380.464304,224.073498 L377.286526,220.909622 C376.966526,220.590129 376.449489,220.590129 376.129489,220.909622 C375.81097,221.226158 375.81097,221.742377 376.129489,222.060392 L378.704304,224.625217 C374.408008,226.268539 371.422822,229.834741 371.422822,233.979285 C371.422822,233.984733 371.422822,233.979285 372.398939,233.992105 C373.375056,234.004926 394.453085,233.985836 395.460488,233.982778 C396.610971,233.979285 396.610971,233.98091 396.61097,233.979285 C396.610429,229.845095 393.642082,226.287768 389.362082,224.63705 L391.95023,222.060392 Z M380.313193,231.028405 C379.493933,231.028405 378.831711,230.367231 378.831711,229.552225 C378.831711,228.73722 379.493933,228.077525 380.313193,228.077525 C381.132452,228.077525 381.794674,228.73722 381.794674,229.552225 C381.794674,230.367231 381.132452,231.028405 380.313193,231.028405 L380.313193,231.028405 Z M387.722082,231.028405 C386.902822,231.028405 386.239119,230.367231 386.239119,229.552225 C386.239119,228.73722 386.902822,228.077525 387.722082,228.077525 C388.539859,228.077525 389.203563,228.73722 389.203563,229.552225 C389.203563,230.367231 388.539859,231.028405 387.722082,231.028405 L387.722082,231.028405 Z M401.039119,235.459903 C399.403563,235.459903 398.079119,236.616588 398.079119,238.045436 L398.079119,249.110867 C398.079119,250.539714 399.403563,251.699358 401.039119,251.699358 C402.673193,251.699358 404.0006,250.539714 404.0006,249.110867 L404.0006,238.045436 C404.0006,236.616588 402.673193,235.459903 401.039119,235.459903 L401.039119,235.459903 Z M371.422822,253.162226 C371.422822,255.602803 373.405045,257.578932 375.853933,257.587807 L375.853933,265.342927 C375.853933,266.770295 377.179859,267.931418 378.815415,267.931418 C380.449489,267.931418 381.776896,266.770295 381.776896,265.342927 L381.776896,257.589286 L386.225785,257.589286 L386.225785,265.342927 C386.225785,266.770295 387.55023,267.931418 389.187267,267.931418 C390.821341,267.931418 392.147267,266.770295 392.147267,265.342927 L392.147267,257.589286 L392.166526,257.589286 C394.622822,257.589286 396.61097,255.607241 396.61097,253.162226 L396.61097,235.455465 L371.422822,235.455465 L371.422822,253.162226 L371.422822,253.162226 Z" id="ico_Android" sketch:type="MSShapeGroup"></path>
            </g>
        </g>
    </g>
</svg>