<?xml version="1.0" encoding="UTF-8" standalone="no"?>
<svg width="32px" height="30px" viewBox="0 0 32 30" version="1.1" xmlns="http://www.w3.org/2000/svg" xmlns:xlink="http://www.w3.org/1999/xlink" xmlns:sketch="http://www.bohemiancoding.com/sketch/ns">
    <!-- Generator: Sketch 3.3.1 (12002) - http://www.bohemiancoding.com/sketch -->
    <title>thin-0378_analytics_presentation_statistics_graph</title>
    <desc>Created with Sketch.</desc>
    <defs></defs>
    <g id="Page-1" stroke="none" stroke-width="1" fill="none" fill-rule="evenodd" sketch:type="MSPage">
        <g id="Funciones" sketch:type="MSArtboardGroup" transform="translate(-752.000000, -3002.000000)">
            <g id="Reportes" sketch:type="MSLayerGroup" transform="translate(-103.000000, 2712.000000)">
                <g id="Group" transform="translate(855.000000, 73.000000)" sketch:type="MSShapeGroup">
                    <g id="Reporte-de-caja-+-Cras-quis-nulla-comm" transform="translate(0.000000, 217.000000)">
                        <g id="thin-0378_analytics_presentation_statistics_graph">
                            <g id="Group" transform="translate(0.280000, 1.280000)" stroke="#70A0F7" stroke-width="1.28">
                                <path d="M26.23232,7.388736 L30.103296,7.395136 L30.025984,26.503488 L20.461184,26.503488" id="Shape"></path>
                                <path d="M4.224768,3.486272 L4.423424,0.020544 L22.635904,1.478592 L22.372352,3.486272" id="Shape"></path>
                                <path d="M20.774528,22.67616 L20.386816,27.412288 L2.175488,25.939392 L2.583424,22.67616" id="Shape"></path>
                                <rect id="Rectangle-path" x="0.63232" y="3.47616" width="25.6" height="19.2"></rect>
                                <path d="M12.796672,11.136832 C12.709376,11.136832 12.658944,11.136832 9.42592,12.56224 L9.859968,8.9968 C9.909888,8.590912 9.439872,8.587584 9.029248,8.587584 C6.81536,8.587584 4.943104,10.247104 4.675072,12.448576 C4.358272,15.048768 6.388224,17.37248 9.039488,17.37248 C11.253632,17.37248 13.124864,15.712576 13.393152,13.511488 C13.465472,12.91808 13.387008,11.136832 12.796672,11.136832 L12.796672,11.136832 Z" id="Shape"></path>
                                <path d="M17.290496,16.27616 L22.372352,16.27616" id="Shape"></path>
                                <path d="M17.290496,12.435776 L22.372352,12.435776" id="Shape"></path>
                                <path d="M17.290496,8.595392 L22.372352,8.595392" id="Shape"></path>
                            </g>
                            <rect id="Rectangle-path" x="0.27232" y="0.27616" width="30.72" height="30.72"></rect>
                        </g>
                    </g>
                </g>
            </g>
        </g>
    </g>
</svg>