<?xml version="1.0" encoding="UTF-8" standalone="no"?>
<svg width="25px" height="24px" viewBox="0 0 25 24" version="1.1" xmlns="http://www.w3.org/2000/svg" xmlns:xlink="http://www.w3.org/1999/xlink" xmlns:sketch="http://www.bohemiancoding.com/sketch/ns">
    <!-- Generator: Sketch 3.3.1 (12002) - http://www.bohemiancoding.com/sketch -->
    <title>ico_admin</title>
    <desc>Created with Sketch.</desc>
    <defs></defs>
    <g id="Page-1" stroke="none" stroke-width="1" fill="none" fill-rule="evenodd" sketch:type="MSPage">
        <g id="Home" sketch:type="MSArtboardGroup" transform="translate(-738.000000, -1632.000000)">
            <g id="Funciones" sketch:type="MSLayerGroup" transform="translate(0.000000, 1448.000000)">
                <g id="Group-Copy-9" transform="translate(192.000000, 168.000000)" sketch:type="MSShapeGroup">
                    <g id="Rectangle-660-Copy-3-+-Administración" transform="translate(531.000000, 0.000000)">
                        <g id="Administración-+-Rectangle-706" transform="translate(15.500000, 16.000000)">
                            <g id="ico_admin">
                                <g id="Group" transform="translate(0.406780, 0.410256)" stroke="#00E676" stroke-width="0.813559322">
                                    <path d="M7.84757034,19.7623436 L7.37143983,22.7260436 C7.37143983,22.9426436 7.58471695,23.1179436 7.84757034,23.1179436 L15.1617559,23.1179436 C15.4246093,23.1179436 15.6378864,22.9427436 15.6378864,22.7260436 L15.1608636,19.7623436" id="Shape"></path>
                                    <path d="M21.2959271,0.0897435897 L1.71260593,0.0897435897 C0.81160678,0.0897435897 0.103261017,0.81254359 0.103261017,1.72084359 L0.103261017,15.4518436 C0.103261017,16.3605436 0.81160678,17.0897436 1.71260593,17.0897436 L21.2959271,17.0897436 C22.1979178,17.0897436 22.9083458,16.3605436 22.9083458,15.4518436 L22.9083458,1.72074359 C22.9083458,0.81254359 22.1979178,0.0897435897 21.2959271,0.0897435897 L21.2959271,0.0897435897 Z" id="Shape"></path>
                                    <path d="M0.104351695,14.0897436 L22.9083458,14.0897436" id="Shape"></path>
                                    <ellipse id="Oval" cx="11.4904347" cy="7.13534359" rx="0.815727966" ry="0.8227"></ellipse>
                                    <ellipse id="Oval" cx="11.4904347" cy="7.13874359" rx="3.48481525" ry="3.5146"></ellipse>
                                    <path d="M11.4904347,3.62414359 L11.4904347,2.61344359" id="Shape"></path>
                                    <path d="M11.4904347,11.6910436 L11.4904347,10.6803436" id="Shape"></path>
                                    <path d="M14.9886356,7.15224359 L15.9907703,7.15224359" id="Shape"></path>
                                    <path d="M6.99009915,7.15224359 L7.9922339,7.15224359" id="Shape"></path>
                                    <path d="M13.2394856,4.09684359 L13.7406025,3.22154359" id="Shape"></path>
                                    <path d="M9.24026695,11.0829436 L9.74128475,10.2076436" id="Shape"></path>
                                    <path d="M9.74128475,4.09684359 L9.24026695,3.22154359" id="Shape"></path>
                                    <path d="M13.7406025,11.0829436 L13.2394856,10.2076436" id="Shape"></path>
                                    <path d="M14.5199415,8.91634359 L15.3878237,9.42164359" id="Shape"></path>
                                    <path d="M7.59304576,4.88284359 L8.46082881,5.38814359" id="Shape"></path>
                                    <path d="M14.5199415,5.38814359 L15.3878237,4.88284359" id="Shape"></path>
                                    <path d="M7.59304576,9.42164359 L8.46082881,8.91634359" id="Shape"></path>
                                </g>
                                <rect id="Rectangle-path" x="0" y="0" width="23.7966102" height="24"></rect>
                            </g>
                        </g>
                    </g>
                </g>
            </g>
        </g>
    </g>
</svg>