<?xml version="1.0" encoding="utf-8"?>
<!-- Generator: Adobe Illustrator 16.0.0, SVG Export Plug-In . SVG Version: 6.00 Build 0)  -->
<!DOCTYPE svg PUBLIC "-//W3C//DTD SVG 1.1//EN" "http://www.w3.org/Graphics/SVG/1.1/DTD/svg11.dtd">
<svg version="1.1" id="Layer_1" xmlns="http://www.w3.org/2000/svg" xmlns:xlink="http://www.w3.org/1999/xlink" x="0px" y="0px"
	 width="28.021px" height="28.053px" viewBox="0 0 28.021 28.053" enable-background="new 0 0 28.021 28.053" xml:space="preserve">
<circle fill="none" stroke="#AA7FB8" stroke-width="1.28" stroke-miterlimit="10" cx="21.556" cy="21.588" r="5.826"/>
<line fill="none" stroke="#AA7FB8" stroke-width="1.28" stroke-miterlimit="10" x1="21.625" y1="18.44" x2="21.625" y2="24.858"/>
<line fill="none" stroke="#AA7FB8" stroke-width="1.28" stroke-miterlimit="10" x1="18.416" y1="21.649" x2="24.833" y2="21.649"/>
<path fill="none" stroke="#AA7FB8" stroke-width="1.28" stroke-miterlimit="10" d="M15.871,15.408
	c-1.189-0.625-1.23-0.685-1.375-1.147v-1.114c0.742-0.756,1.328-1.808,1.676-3.041c0.834-0.582,1.041-1.78,0.351-2.622V4.985
	c0-2.579-1.445-4.345-4.753-4.345c-3.221,0-4.755,1.766-4.755,4.345v2.499c-0.688,0.841-0.482,2.039,0.351,2.621
	c0.348,1.233,0.935,2.285,1.678,3.041v1.116c-0.333,1.062-4.313,2.77-7.896,4.145C0.842,18.525,0.64,18.82,0.64,19.15v2.79
	c0,0.439,0.353,0.795,0.788,0.795h11.968"/>
</svg>
