<?xml version="1.0" encoding="utf-8"?>
<!-- Generator: Adobe Illustrator 16.0.0, SVG Export Plug-In . SVG Version: 6.00 Build 0)  -->
<!DOCTYPE svg PUBLIC "-//W3C//DTD SVG 1.1//EN" "http://www.w3.org/Graphics/SVG/1.1/DTD/svg11.dtd">
<svg version="1.1" id="Layer_1" xmlns="http://www.w3.org/2000/svg" xmlns:xlink="http://www.w3.org/1999/xlink" x="0px" y="0px"
	 width="31.915px" height="25.711px" viewBox="0 0 31.915 25.711" enable-background="new 0 0 31.915 25.711" xml:space="preserve">
<path fill="none" stroke="#AA7FB8" stroke-width="1.28" stroke-miterlimit="10" d="M20.395,23.302
	c-1.497-0.563-3.159-1.262-3.299-1.696V21.15c0.312-0.309,0.556-0.74,0.7-1.244c0.348-0.236,0.436-0.727,0.146-1.073v-1.021
	c0-1.055-0.604-1.778-1.985-1.778c-1.347,0-1.987,0.724-1.987,1.778v1.021c-0.288,0.346-0.2,0.836,0.147,1.072
	c0.145,0.504,0.39,0.936,0.7,1.244v0.456c-0.14,0.435-1.802,1.133-3.299,1.696c-0.128,0.048-0.212,0.169-0.212,0.304v1.141
	c0,0.181,0.147,0.325,0.329,0.325h8.643c0.182,0,0.328-0.145,0.328-0.325v-1.141C20.607,23.471,20.523,23.35,20.395,23.302z"/>
<path fill="none" stroke="#AA7FB8" stroke-width="1.28" stroke-miterlimit="10" d="M31.063,9.221
	c-1.497-0.562-3.159-1.261-3.299-1.696V7.069c0.311-0.309,0.556-0.739,0.699-1.244c0.349-0.236,0.437-0.727,0.147-1.073V3.73
	c0-1.055-0.604-1.777-1.986-1.777c-1.346,0-1.986,0.724-1.986,1.777v1.021c-0.288,0.347-0.2,0.836,0.146,1.073
	c0.145,0.505,0.39,0.936,0.701,1.244v0.456c-0.141,0.436-1.802,1.133-3.299,1.696c-0.128,0.048-0.212,0.169-0.212,0.303v1.142
	c0,0.181,0.146,0.325,0.329,0.325h8.642c0.182,0,0.329-0.145,0.329-0.325V9.524C31.275,9.39,31.191,9.269,31.063,9.221z"/>
<path fill="none" stroke="#AA7FB8" stroke-width="1.28" stroke-miterlimit="10" d="M9.728,9.221C8.231,8.66,6.569,7.96,6.429,7.525
	V7.069C6.74,6.76,6.985,6.33,7.129,5.825c0.348-0.236,0.436-0.727,0.146-1.073V3.73c0-1.055-0.604-1.777-1.985-1.777
	c-1.347,0-1.987,0.724-1.987,1.777v1.021c-0.288,0.347-0.2,0.836,0.146,1.073C3.595,6.33,3.84,6.76,4.151,7.069v0.456
	C4.011,7.96,2.349,8.658,0.852,9.221C0.724,9.269,0.64,9.39,0.64,9.524v1.142c0,0.181,0.146,0.325,0.329,0.325h8.642
	c0.183,0,0.329-0.145,0.329-0.325V9.524C9.94,9.39,9.856,9.269,9.728,9.221z"/>
<path fill="none" stroke="#AA7FB8" stroke-width="1.28" stroke-miterlimit="10" d="M21.913,2.139
	c-1.702-0.951-3.68-1.499-5.791-1.499s-4.089,0.548-5.792,1.499"/>
<path fill="none" stroke="#AA7FB8" stroke-width="1.28" stroke-miterlimit="10" d="M22.48,20.943c2.771-1.762,4.704-4.639,5.1-7.966
	C27.184,16.304,25.25,19.181,22.48,20.943"/>
<path fill="none" stroke="#AA7FB8" stroke-width="1.28" stroke-miterlimit="10" d="M9.763,20.943
	c-2.771-1.762-4.704-4.639-5.1-7.966C5.059,16.304,6.993,19.181,9.763,20.943"/>
</svg>
