<?xml version="1.0" encoding="UTF-8" standalone="no"?>
<svg width="29px" height="40px" viewBox="0 0 29 40" version="1.1" xmlns="http://www.w3.org/2000/svg" xmlns:xlink="http://www.w3.org/1999/xlink" xmlns:sketch="http://www.bohemiancoding.com/sketch/ns">
    <!-- Generator: Sketch 3.3.1 (12002) - http://www.bohemiancoding.com/sketch -->
    <title>ico_direccion</title>
    <desc>Created with Sketch.</desc>
    <defs></defs>
    <g id="Page-1" stroke="none" stroke-width="1" fill="none" fill-rule="evenodd" sketch:type="MSPage">
        <g id="Funciones" sketch:type="MSArtboardGroup" transform="translate(-854.000000, -6844.000000)">
            <g id="Prueba-Gratis---Call" sketch:type="MSLayerGroup" transform="translate(0.000000, 6376.000000)">
                <g id="Encuentranos-+-La-Mar-662-Of.-210-M-+-thin-0536_navigation_location_drop_pin_map" transform="translate(848.000000, 464.000000)" sketch:type="MSShapeGroup">
                    <g id="ico_direccion" transform="translate(0.000000, 4.000000)">
                        <g id="Group" transform="translate(7.085714, 0.571429)" stroke="#1B1B1B" stroke-width="2">
                            <path d="M19.7260251,28.228736 L21.9990857,28.228736 L25.8721097,38.1030217 L0.41472,38.1030217 L4.287744,28.228736 L6.56031086,28.228736" id="Shape"></path>
                            <ellipse id="Oval" cx="13.143168" cy="9.93431771" rx="3.37058743" ry="3.37058743"></ellipse>
                            <path d="M23.6151771,10.9386971 C23.6151771,16.7220663 13.1434971,32.6349714 13.1434971,32.6349714 C13.1434971,32.6349714 2.67181714,16.7219017 2.67181714,10.9386971 C2.67181714,5.15549257 7.360128,0.467017143 13.1434971,0.467017143 C18.9268663,0.467017143 23.6151771,5.155328 23.6151771,10.9386971 L23.6151771,10.9386971 Z" id="Shape"></path>
                        </g>
                        <rect id="Rectangle-path" x="0.480310857" y="0.000164571428" width="39.4971429" height="39.4971429"></rect>
                    </g>
                </g>
            </g>
        </g>
    </g>
</svg>