<?xml version="1.0" encoding="UTF-8" standalone="no"?>
<svg width="32px" height="32px" viewBox="0 0 32 32" version="1.1" xmlns="http://www.w3.org/2000/svg" xmlns:xlink="http://www.w3.org/1999/xlink" xmlns:sketch="http://www.bohemiancoding.com/sketch/ns">
    <!-- Generator: Sketch 3.3.1 (12002) - http://www.bohemiancoding.com/sketch -->
    <title>ico_google_footer</title>
    <desc>Created with Sketch.</desc>
    <defs></defs>
    <g id="Page-1" stroke="none" stroke-width="1" fill="none" fill-rule="evenodd" sketch:type="MSPage">
        <g id="Funciones" sketch:type="MSArtboardGroup" transform="translate(-1164.000000, -6968.000000)">
            <g id="Footer" sketch:type="MSLayerGroup" transform="translate(0.000000, 6936.000000)">
                <g id="ico_google_footer" transform="translate(1164.000000, 32.000000)" sketch:type="MSShapeGroup">
                    <rect id="Rectangle-246-Copy-2" fill="#FFFFFF" x="0" y="0" width="32" height="32" rx="4"></rect>
                    <path d="M13.5480686,22.144 L13.5480686,22.144 C11.9988675,22.144 10.88,21.0724385 10.88,19.7853559 C10.88,18.5237762 12.2525808,17.5181093 13.8017819,17.5362414 C14.1633165,17.5405164 14.5153335,17.5596804 14.8212579,17.6678832 C15.66221,18.3069283 16.2654929,18.6680957 16.4357229,19.3961797 C16.467675,19.5438897 16.512,19.7543987 16.512,19.909627 C16.512,21.196857 15.7259783,22.144 13.5480686,22.144 L13.5480686,22.144 Z M13.7960834,14.9753299 L13.7960834,14.9753299 C12.6864446,14.9434093 11.4948413,13.9068217 11.3983699,12.493432 C11.3165505,11.2947432 12.0298587,9.82459028 13.1392074,9.85651091 C14.248411,9.88857032 15.2663658,11.0853161 15.458003,12.4899624 C15.64935,13.8947474 14.9052871,15.0072505 13.7960834,14.9753299 L13.7960834,14.9753299 Z M16.2715671,17.0222399 C15.8936896,16.7592074 15.1710322,16.1194915 15.1710322,15.7433578 C15.1710322,15.3027715 15.2989162,15.0856392 15.9735467,14.56727 C16.6649372,14.0361203 17.06211,13.2363036 17.06211,12.3673619 C17.06211,11.3332347 16.6738102,10.3636975 15.7945372,10.0311277 L17.06211,10.0311277 L18.048,9.344 L13.8227573,9.344 C11.9484396,9.344 10.2483428,10.7770736 10.2483428,12.3945722 C10.2483428,14.0475266 11.5260562,15.3815163 13.4330491,15.3815163 C13.5655808,15.3815163 13.6944507,15.3789053 13.8206447,15.3699726 C13.696845,15.6029089 13.5551586,15.8512369 13.5551586,16.1236143 C13.5551586,16.5830279 13.8596577,16.9696059 14.1775368,17.2735912 C13.9374022,17.2735912 13.7055772,17.2803251 13.452626,17.2803251 C11.130996,17.2803251 9.344,18.7344247 9.344,20.2421204 C9.344,21.7270033 11.3029634,22.656 13.6247342,22.656 C16.2715671,22.656 17.7663172,21.1909063 17.7663172,19.7058859 C17.7663172,18.515231 17.3760456,17.7903113 16.2715671,17.0222399 Z M21.142625,10.88425 L21.142625,9.344 L20.0967188,9.344 L20.0967188,10.88425 L18.5639375,10.88425 L18.5639375,11.9235938 L20.0967188,11.9235938 L20.0967188,13.44 L21.142625,13.44 L21.142625,11.9235938 L22.656,11.8914063 L22.656,10.88425 L21.142625,10.88425 Z" id="Fill-1" fill="#333333"></path>
                </g>
            </g>
        </g>
    </g>
</svg>