<?xml version="1.0" encoding="UTF-8" standalone="no"?>
<svg width="33px" height="31px" viewBox="0 0 33 31" version="1.1" xmlns="http://www.w3.org/2000/svg" xmlns:xlink="http://www.w3.org/1999/xlink" xmlns:sketch="http://www.bohemiancoding.com/sketch/ns">
    <!-- Generator: Sketch 3.3.1 (12002) - http://www.bohemiancoding.com/sketch -->
    <title>thin-0401_graph_growth_money_stock_inflation</title>
    <desc>Created with Sketch.</desc>
    <defs></defs>
    <g id="Page-1" stroke="none" stroke-width="1" fill="none" fill-rule="evenodd" sketch:type="MSPage">
        <g id="Funciones" sketch:type="MSArtboardGroup" transform="translate(-752.000000, -2858.000000)">
            <g id="Reportes" sketch:type="MSLayerGroup" transform="translate(-103.000000, 2712.000000)">
                <g id="Group" transform="translate(855.000000, 73.000000)" sketch:type="MSShapeGroup">
                    <g id="Modos-de-pago-+-Cras-quis-nulla-comm-Copy-2" transform="translate(0.000000, 72.000000)">
                        <g id="thin-0401_graph_growth_money_stock_inflation">
                            <g id="Group" transform="translate(0.000000, 1.333333)" stroke="#70A0F7" stroke-width="1.33333333">
                                <path d="M17.2718667,4.09173333 L20.6438667,0.7444 L24.0158667,4.09173333" id="Shape"></path>
                                <path d="M3.02266667,20.5790667 C3.02266667,20.5790667 20.6436,20.0357333 20.6436,3.9608 L20.6438667,0.744533333" id="Shape"></path>
                                <circle id="Oval" cx="6.81346667" cy="7.96253333" r="5.88773333"></circle>
                                <path d="M4.69013333,10.1981333 C5.26133333,10.6953333 6.14226667,11.0688 6.77813333,11.0688 C7.79546667,11.0688 8.62026667,10.3477333 8.62026667,9.45813333 C8.62026667,8.56853333 7.7396,8.12853333 6.77813333,7.84746667 C5.7816,7.5352 4.936,7.1264 4.936,6.2368 C4.936,5.3472 5.7608,4.62613333 6.77813333,4.62613333 C7.4632,4.62613333 8.06093333,4.95306667 8.37826667,5.43826667" id="Shape"></path>
                                <path d="M6.77813333,3.746 L6.77813333,4.62613333" id="Shape"></path>
                                <path d="M6.77813333,11.0686667 L6.77813333,11.9489333" id="Shape"></path>
                                <rect id="Rectangle-path" x="28.7353333" y="2" width="2.66666667" height="28"></rect>
                                <rect id="Rectangle-path" x="22.0682667" y="14.0008" width="2.66666667" height="15.9992"></rect>
                                <rect id="Rectangle-path" x="15.4012" y="20.6678667" width="2.66666667" height="9.33213333"></rect>
                                <rect id="Rectangle-path" x="8.73413333" y="24.6681333" width="2.66666667" height="5.33186667"></rect>
                                <rect id="Rectangle-path" x="2.06693333" y="26.0016" width="2.66666667" height="3.99853333"></rect>
                            </g>
                            <rect id="Rectangle-path" x="0" y="0" width="32" height="32"></rect>
                        </g>
                    </g>
                </g>
            </g>
        </g>
    </g>
</svg>