<?xml version="1.0" encoding="UTF-8" standalone="no"?>
<svg width="29px" height="29px" viewBox="0 0 29 29" version="1.1" xmlns="http://www.w3.org/2000/svg" xmlns:xlink="http://www.w3.org/1999/xlink" xmlns:sketch="http://www.bohemiancoding.com/sketch/ns">
    <!-- Generator: Sketch 3.3.1 (12002) - http://www.bohemiancoding.com/sketch -->
    <title>thin-0706_user_profile_add_new</title>
    <desc>Created with Sketch.</desc>
    <defs></defs>
    <g id="Page-1" stroke="none" stroke-width="1" fill="none" fill-rule="evenodd" sketch:type="MSPage">
        <g id="Funciones" sketch:type="MSArtboardGroup" transform="translate(-762.000000, -1561.000000)">
            <g id="Group" sketch:type="MSLayerGroup" transform="translate(0.000000, 681.000000)">
                <g id="Usuarios-y-roles-+-Agrega-mas-usuarios--+-Registro-de-clientes-+-Registra-la-informac-+-Wally-offline-+-Continua-vendiendo-i" transform="translate(760.000000, 759.000000)" sketch:type="MSShapeGroup">
                    <g id="Registro-de-clientes-+-Registra-la-informac" transform="translate(0.000000, 119.000000)">
                        <g id="thin-0706_user_profile_add_new" transform="translate(0.000000, 0.500000)">
                            <g id="Group" transform="translate(2.000000, 2.000000)" stroke="#00BDE9" stroke-width="1.28">
                                <circle id="Oval" cx="21.5709667" cy="21.5777333" r="5.82563333"></circle>
                                <path d="M21.6400333,18.4303 L21.6400333,24.8484833" id="Shape"></path>
                                <path d="M18.4308833,21.6393333 L24.8491833,21.6393333" id="Shape"></path>
                                <path d="M15.8852167,15.3977833 C14.6962667,14.7729167 14.65485,14.7133 14.5097167,14.2511833 L14.5097167,13.1352667 C15.253,12.3803167 15.8393667,11.3274 16.1862167,10.0945833 C17.0205,9.513 17.2267667,8.31495 16.53715,7.47261667 L16.53715,4.97455 C16.53715,2.39563333 15.0907167,0.63035 11.7840333,0.63035 C8.56275,0.63035 7.02928333,2.39575 7.02928333,4.97455 L7.02928333,7.47355 C6.34071667,8.31506667 6.54756667,9.5123 7.3801,10.0942333 C7.72706667,11.3274 8.31378333,12.3803167 9.05753333,13.1353833 L9.05753333,14.2513 C8.72421667,15.3137833 4.74553333,17.0213167 1.16235,18.39705 C0.856916667,18.5147667 0.65485,18.8097 0.65485,19.1394 L0.65485,21.9303 C0.65485,22.3686167 1.00788333,22.7248 1.44316667,22.7248 L13.4108333,22.7248" id="Shape"></path>
                            </g>
                            <rect id="Rectangle-path" x="-1.57645887e-14" y="-1.24300165e-15" width="32" height="32"></rect>
                        </g>
                    </g>
                </g>
            </g>
        </g>
    </g>
</svg>