<?xml version="1.0" encoding="UTF-8" standalone="no"?>
<svg width="51px" height="31px" viewBox="0 0 51 31" version="1.1" xmlns="http://www.w3.org/2000/svg" xmlns:xlink="http://www.w3.org/1999/xlink" xmlns:sketch="http://www.bohemiancoding.com/sketch/ns">
    <!-- Generator: Sketch 3.3.1 (12002) - http://www.bohemiancoding.com/sketch -->
    <title>ico_cliente</title>
    <desc>Created with Sketch.</desc>
    <defs></defs>
    <g id="Page-1" stroke="none" stroke-width="1" fill="none" fill-rule="evenodd" sketch:type="MSPage">
        <g id="Home" sketch:type="MSArtboardGroup" transform="translate(-1031.000000, -1174.000000)">
            <g id="Caracteristicas" sketch:type="MSLayerGroup" transform="translate(0.000000, 648.000000)">
                <g id="ico_cliente" transform="translate(1028.000000, 513.000000)" sketch:type="MSShapeGroup">
                    <g id="Group" transform="translate(4.004686, 14.855670)" stroke="#BF7BE6" stroke-width="2">
                        <path d="M34.2087903,20.4144 L29.2632397,16.260701" id="Shape"></path>
                        <path d="M29.6638995,22.9322062 L25.6321305,19.6322474" id="Shape"></path>
                        <path d="M7.65093458,14.2132948 C9.08568922,18.3374351 20.6399325,27.2657979 20.6399325,27.2657979 C23.4263078,29.6238021 25.9450377,26.0247918 23.6542336,24.0859216 L21.8977964,22.3812124" id="Shape"></path>
                        <path d="M21.8975655,22.3812124 L26.6756933,26.5302928 C29.4244274,28.8566598 32.1057305,25.0611299 29.8345552,23.1391175 L31.0397676,24.1588948 C33.4423408,26.1922144 36.6048975,22.4421773 34.2087903,20.4144 L34.3949181,20.5718928 C36.7981841,22.6056742 39.960048,18.8551753 37.5637098,16.8273979 L25.736048,7.18338969 C25.736048,7.18338969 23.45425,8.0579134 22.5718748,7.80574021 C22.5718748,7.80574021 19.166382,13.028866 16.6765181,11.2135423 C14.1866542,9.39821856 16.6762872,1.66906392 23.675248,0.56476701 C23.675248,0.56476701 26.8251037,-0.33331134 34.5394789,3.6425732 L37.3992892,2.77659381" id="Shape"></path>
                        <path d="M5.71583851,18.0899024 L0.223454381,15.9191484 L3.44434815,0.0474358417 L8.93673228,2.2181898 L5.71583851,18.0899024 L5.71583851,18.0899024 Z" id="Rectangle-path"></path>
                        <path d="M39.6589062,2.68192737 L45.1512903,0.511173412 L48.3721841,16.382886 L42.8798,18.5536399 L39.6589062,2.68192737 L39.6589062,2.68192737 Z" id="Rectangle-path"></path>
                        <path d="M10.8982418,2.74588041 C10.8982418,2.74588041 11.3044439,2.00829691 20.1963201,1.81524124" id="Shape"></path>
                        <path d="M38.3266954,18.0596289 C38.3266954,18.0596289 40.5306707,18.6307134 41.6871573,17.3091134" id="Shape"></path>
                    </g>
                    <rect id="Rectangle-path" x="0.573624742" y="0.570391753" width="55.4226804" height="55.4226804"></rect>
                </g>
            </g>
        </g>
    </g>
</svg>