<?xml version="1.0" encoding="utf-8"?>
<!-- Generator: Adobe Illustrator 16.0.0, SVG Export Plug-In . SVG Version: 6.00 Build 0)  -->
<!DOCTYPE svg PUBLIC "-//W3C//DTD SVG 1.1//EN" "http://www.w3.org/Graphics/SVG/1.1/DTD/svg11.dtd">
<svg version="1.1" id="Layer_1" xmlns="http://www.w3.org/2000/svg" xmlns:xlink="http://www.w3.org/1999/xlink" x="0px" y="0px"
	 width="23.238px" height="30.979px" viewBox="0 0 23.238 30.979" enable-background="new 0 0 23.238 30.979" xml:space="preserve">
<polyline fill="none" stroke="#00D081" stroke-width="1.28" stroke-miterlimit="10" points="17.432,0.64 17.432,5.76 22.599,5.76 
	"/>
<line fill="none" stroke="#00D081" stroke-width="1.28" stroke-miterlimit="10" x1="18.125" y1="22.4" x2="5.154" y2="22.4"/>
<line fill="none" stroke="#00D081" stroke-width="1.28" stroke-miterlimit="10" x1="18.125" y1="18.56" x2="5.154" y2="18.56"/>
<line fill="none" stroke="#00D081" stroke-width="1.28" stroke-miterlimit="10" x1="18.125" y1="14.72" x2="5.154" y2="14.72"/>
<line fill="none" stroke="#00D081" stroke-width="1.28" stroke-miterlimit="10" x1="12.36" y1="10.88" x2="5.154" y2="10.88"/>
<path fill="none" stroke="#00D081" stroke-width="1.28" stroke-miterlimit="10" d="M22.598,26.908l-3.02,3.14l-3.986-4.221
	l-3.986,4.221l-3.987-4.221L3.75,29.922l-3.095-3.277H0.64V1.671c0-0.559,0.453-1.031,1.017-1.031h15.774
	c0.269,0,0.393,0.114,0.584,0.301l4.277,4.184c0.194,0.189,0.305,0.365,0.305,0.636V26.908z"/>
</svg>
