<?xml version="1.0" encoding="utf-8"?>
<!-- Generator: Adobe Illustrator 17.0.0, SVG Export Plug-In . SVG Version: 6.00 Build 0)  -->
<!DOCTYPE svg PUBLIC "-//W3C//DTD SVG 1.0//EN" "http://www.w3.org/TR/2001/REC-SVG-20010904/DTD/svg10.dtd">
<svg version="1.0" id="Layer_1" xmlns="http://www.w3.org/2000/svg" xmlns:xlink="http://www.w3.org/1999/xlink" x="0px" y="0px"
	 width="115px" height="109.309px" viewBox="0 0 115 109.309" enable-background="new 0 0 115 109.309" xml:space="preserve">
<g id="XMLID_625_">
	
		<circle id="XMLID_634_" fill="none" stroke="#C9C1B0" stroke-width="2" stroke-miterlimit="10" cx="54.571" cy="51.633" r="37.255"/>
	<path id="XMLID_626_" fill="#C9C1B0" d="M45.785,37.339L33.657,49.467l21.499,21.499l21.5-21.499L64.529,37.339H45.785z
		 M46.497,39.108h4.376l-4.307,9.44h-9.464L46.497,39.108z M37.034,50.317h9.808l5.478,15.287L37.034,50.317z M73.211,48.548h-9.464
		l-4.306-9.44h4.375L73.211,48.548z M57.994,65.603l5.478-15.287h9.808L57.994,65.603z M48.547,48.548l4.307-9.44h4.606l4.307,9.44
		H48.547z M55.157,68.084l-6.408-17.767h12.817L55.157,68.084z"/>
</g>
</svg>
