<?xml version="1.0" encoding="utf-8"?>
<!-- Generator: Adobe Illustrator 17.0.0, SVG Export Plug-In . SVG Version: 6.00 Build 0)  -->
<!DOCTYPE svg PUBLIC "-//W3C//DTD SVG 1.0//EN" "http://www.w3.org/TR/2001/REC-SVG-20010904/DTD/svg10.dtd">
<svg version="1.0" id="Layer_1" xmlns="http://www.w3.org/2000/svg" xmlns:xlink="http://www.w3.org/1999/xlink" x="0px" y="0px"
	 width="105px" height="96px" viewBox="0 0 105 96" enable-background="new 0 0 105 96" xml:space="preserve">
<circle id="XMLID_620_" fill="none" stroke="#C9C1B0" stroke-width="2" stroke-miterlimit="10" cx="49.571" cy="53.133" r="37.255"/>
<g id="XMLID_612_">
	<path id="XMLID_614_" fill-rule="evenodd" clip-rule="evenodd" fill="#C9C1B0" d="M38.261,70.355h22.614
		c2.641,0,4.846-2.205,4.846-4.846V42.894c0-2.641-2.205-4.846-4.846-4.846h-0.808v4.361c0,0.711-0.582,1.292-1.292,1.292h-3.877
		c-0.711,0-1.292-0.581-1.292-1.292v-4.361H45.53v4.361c0,0.711-0.582,1.292-1.292,1.292h-3.877c-0.711,0-1.292-0.581-1.292-1.292
		v-4.361h-0.808c-2.641,0-4.846,2.205-4.846,4.846v22.614C33.415,68.15,35.62,70.355,38.261,70.355z M40.312,66.316
		c-1.583,0-2.859-1.3-2.859-2.908V49.84c0-1.607,1.276-2.908,2.859-2.908h18.512c1.583,0,2.859,1.3,2.859,2.908v13.569
		c0,1.607-1.276,2.908-2.859,2.908H40.312z M41.766,35.625c-0.597,0-1.082,0.485-1.082,1.082v4.297c0,0.597,0.485,1.082,1.082,1.082
		h1.066c0.597,0,1.082-0.485,1.082-1.082v-4.297c0-0.597-0.485-1.082-1.082-1.082H41.766z M56.304,35.625
		c-0.597,0-1.082,0.485-1.082,1.082v4.297c0,0.597,0.485,1.082,1.082,1.082h1.067c0.597,0,1.082-0.485,1.082-1.082v-4.297
		c0-0.597-0.485-1.082-1.082-1.082H56.304z"/>
	<path id="XMLID_613_" fill="#C9C1B0" d="M51.902,51.086c-0.983,0-1.85,0.465-2.419,1.177c-0.57-0.712-1.437-1.177-2.419-1.177
		c-1.718,0-3.111,1.393-3.111,3.111c0,3.802,5.53,7.949,5.53,7.949s5.53-4.147,5.53-7.949C55.012,52.479,53.62,51.086,51.902,51.086
		z"/>
</g>
</svg>
