<?xml version="1.0" encoding="utf-8"?>
<!-- Generator: Adobe Illustrator 17.0.0, SVG Export Plug-In . SVG Version: 6.00 Build 0)  -->
<!DOCTYPE svg PUBLIC "-//W3C//DTD SVG 1.0//EN" "http://www.w3.org/TR/2001/REC-SVG-20010904/DTD/svg10.dtd">
<svg version="1.0" id="Layer_1" xmlns="http://www.w3.org/2000/svg" xmlns:xlink="http://www.w3.org/1999/xlink" x="0px" y="0px"
	 width="98px" height="91.667px" viewBox="0 0 98 91.667" enable-background="new 0 0 98 91.667" xml:space="preserve">
<g id="XMLID_644_">
	<path id="XMLID_646_" fill="#C9C1B0" d="M62.669,37.343c-1.347-1.352-3-2.016-4.96-1.995c-3.055,0.033-5.665,1.697-7.825,5.002
		v-0.025l-0.524,0.989c0,0-0.241-0.436-0.565-1.023l0.003,0.071c-0.798-1.632-1.815-2.849-3.052-3.657
		c-1.237-0.807-2.598-1.202-4.08-1.186c-1.949,0.021-3.649,0.641-5.101,1.866c-1.45,1.227-2.165,2.795-2.145,4.708
		c0.007,0.661,0.212,1.616,0.613,2.862c0.721,1.864,2.642,4.29,5.763,7.285c3.124,2.991,5.294,5.223,6.515,6.692
		c1.22,1.469,2.019,3.472,2.397,6.005c0.291-2.23,1.449-4.457,3.479-6.682c2.03-2.228,4.349-4.691,6.96-7.392
		c2.611-2.701,4.065-4.775,4.361-6.221c0.153-0.511,0.222-1.193,0.213-2.051C64.699,40.443,64.015,38.694,62.669,37.343
		L62.669,37.343z"/>
	
		<circle id="XMLID_645_" fill="none" stroke="#C9C1B0" stroke-width="2" stroke-miterlimit="10" cx="49.571" cy="47.299" r="37.255"/>
</g>
</svg>
