<?xml version="1.0" encoding="utf-8"?>
<!-- Generator: Adobe Illustrator 17.0.0, SVG Export Plug-In . SVG Version: 6.00 Build 0)  -->
<!DOCTYPE svg PUBLIC "-//W3C//DTD SVG 1.0//EN" "http://www.w3.org/TR/2001/REC-SVG-20010904/DTD/svg10.dtd">
<svg version="1.0" id="Layer_1" xmlns="http://www.w3.org/2000/svg" xmlns:xlink="http://www.w3.org/1999/xlink" x="0px" y="0px"
	 width="98px" height="91.992px" viewBox="0 0 98 91.992" enable-background="new 0 0 98 91.992" xml:space="preserve">
<g id="XMLID_649_">
	
		<circle id="XMLID_655_" fill="none" stroke="#C9C1B0" stroke-width="2" stroke-miterlimit="10" cx="49.571" cy="45.133" r="37.255"/>
	<g id="XMLID_650_">
		<g id="XMLID_652_">
			<path id="XMLID_654_" fill="#C9C1B0" d="M57.728,53.21c-1.638,1.877-2.805,3.688-3.285,5.045
				c-0.387,1.097,0.946,2.433,2.045,2.044c1.356-0.48,3.17-1.646,5.045-3.285c0.876-0.765,2.212-2.097,2.916-3.022
				c1.348-1.776,2.196-3.631,2.693-4.991c0.401-1.088-0.312-1.801-1.404-1.399c-1.355,0.495-3.211,1.343-4.986,2.692
				C59.828,50.995,58.494,52.336,57.728,53.21z"/>
			<path id="XMLID_653_" fill="#C9C1B0" d="M33.402,49.004c0.5,1.357,1.345,3.216,2.694,4.988c0.703,0.925,2.042,2.257,2.918,3.025
				c1.875,1.637,3.69,2.803,5.045,3.283c1.095,0.389,2.431-0.946,2.044-2.041c-0.48-1.357-1.648-3.173-3.288-5.048
				c-0.764-0.876-2.096-2.215-3.023-2.915c-1.774-1.35-3.63-2.197-4.987-2.692C33.715,47.2,33.002,47.913,33.402,49.004z"/>
		</g>
		<path id="XMLID_651_" fill="#C9C1B0" d="M59.979,31.714c-0.319-1.117-1.534-1.5-2.54-0.917l-0.792,0.466
			c-1.004,0.583-2.467,0.374-3.24-0.494c-0.5-0.562-1.06-1.196-1.559-1.758c-0.767-0.874-2.07-0.932-2.911-0.129l-1.694,1.621
			c-0.839,0.803-2.351,1.009-3.377,0.461l-0.429-0.231c-1.026-0.55-2.309-0.167-2.704,0.929c-0.543,1.502-0.843,3.11-0.843,4.954
			c0,5.767,2.96,9.701,7.058,11.072c1.103,0.368,2.052,1.4,2.052,2.563v4.045c0,0.705,0.57,1.275,1.274,1.275
			c0.705,0,1.276-0.57,1.276-1.275v-4.045c0-1.164,0.949-2.196,2.051-2.563c4.098-1.371,7.054-5.305,7.054-11.072
			C60.654,34.971,60.415,33.253,59.979,31.714z"/>
	</g>
</g>
</svg>
