<?xml version="1.0" encoding="utf-8"?>
<!-- Generator: Adobe Illustrator 17.0.0, SVG Export Plug-In . SVG Version: 6.00 Build 0)  -->
<!DOCTYPE svg PUBLIC "-//W3C//DTD SVG 1.0//EN" "http://www.w3.org/TR/2001/REC-SVG-20010904/DTD/svg10.dtd">
<svg version="1.0" id="Layer_1" xmlns="http://www.w3.org/2000/svg" xmlns:xlink="http://www.w3.org/1999/xlink" x="0px" y="0px"
	 width="80.355px" height="77.416px" viewBox="0 0 80.355 77.416" enable-background="new 0 0 80.355 77.416" xml:space="preserve">
<g id="XMLID_214_">
	<path id="XMLID_228_" fill="#C4443B" d="M36.973,74.643c-0.73,0-1.472-0.022-2.203-0.068C17.665,73.5,3.946,59.793,2.856,42.69
		c-0.61-9.565,2.65-18.666,9.181-25.625c6.942-7.4,16.973-11.381,27.154-10.73C56.296,7.415,70.01,21.129,71.09,38.233
		c0.605,9.562-2.657,18.66-9.188,25.616C55.463,70.709,46.377,74.643,36.973,74.643z M36.973,8.929
		c-8.802,0-16.968,3.537-22.994,9.96C7.958,25.306,4.951,33.698,5.514,42.52c1.005,15.768,13.654,28.404,29.422,29.394
		c9.595,0.603,18.537-2.978,25.024-9.889c6.02-6.413,9.029-14.803,8.472-23.624C67.435,22.633,54.792,9.99,39.023,8.994
		C38.341,8.95,37.652,8.929,36.973,8.929z"/>
	<path id="XMLID_225_" fill="#C4443B" d="M36.973,66.477c-0.691,0-1.394-0.027-2.087-0.082
		c-12.513-0.981-22.698-11.158-23.691-23.673c-0.581-7.313,1.825-14.293,6.776-19.652c5.355-5.798,13.189-8.863,21.1-8.235
		c12.516,0.99,22.696,11.173,23.681,23.688c0.575,7.312-1.835,14.289-6.786,19.645C51.084,63.448,44.161,66.477,36.973,66.477z
		 M36.972,17.416c-6.451,0-12.663,2.72-17.044,7.462c-4.44,4.808-6.599,11.07-6.077,17.634
		c0.891,11.222,10.023,20.348,21.244,21.228c7.092,0.554,14.113-2.187,18.915-7.381c4.44-4.804,6.603-11.064,6.086-17.627
		c-0.883-11.222-10.012-20.352-21.234-21.24C38.234,17.441,37.598,17.416,36.972,17.416z"/>
	<g id="XMLID_222_">
		<path id="XMLID_224_" fill="#C4443B" d="M38.635,40.856c0,0.846-0.744,1.53-1.663,1.53l0,0c-0.917,0-1.662-0.684-1.662-1.53
			V27.768c0-0.846,0.744-1.53,1.662-1.53l0,0c0.918,0,1.663,0.684,1.663,1.53V40.856z"/>
		<path id="XMLID_223_" fill-rule="evenodd" clip-rule="evenodd" fill="#C4443B" d="M38.635,40.856c0,0.846-0.744,1.53-1.663,1.53
			l0,0c-0.917,0-1.662-0.684-1.662-1.53V27.768c0-0.846,0.744-1.53,1.662-1.53l0,0c0.918,0,1.663,0.684,1.663,1.53V40.856z"/>
	</g>
	<g id="XMLID_219_">
		<path id="XMLID_221_" fill="#C4443B" d="M36.973,42.386c-0.919,0-1.663-0.744-1.663-1.663l0,0c0-0.916,0.744-1.66,1.663-1.66
			h14.215c0.918,0,1.663,0.744,1.663,1.66l0,0c0,0.918-0.744,1.663-1.663,1.663H36.973z"/>
		<path id="XMLID_220_" fill="#C4443B" d="M36.973,42.386c-0.919,0-1.663-0.744-1.663-1.663l0,0c0-0.916,0.744-1.66,1.663-1.66
			h14.215c0.918,0,1.663,0.744,1.663,1.66l0,0c0,0.918-0.744,1.663-1.663,1.663H36.973z"/>
	</g>
	<rect id="XMLID_218_" x="35.641" y="15.801" fill="#C4443B" width="2.664" height="4.976"/>
	<rect id="XMLID_217_" x="35.857" y="59.824" fill="#C4443B" width="2.664" height="4.976"/>
	<rect id="XMLID_216_" x="56.713" y="39.175" fill="#C4443B" width="4.976" height="2.664"/>
	<rect id="XMLID_215_" x="12.69" y="39.391" fill="#C4443B" width="4.976" height="2.664"/>
</g>
</svg>
