<?xml version="1.0" encoding="utf-8"?>
<!-- Generator: Adobe Illustrator 17.0.0, SVG Export Plug-In . SVG Version: 6.00 Build 0)  -->
<!DOCTYPE svg PUBLIC "-//W3C//DTD SVG 1.0//EN" "http://www.w3.org/TR/2001/REC-SVG-20010904/DTD/svg10.dtd">
<svg version="1.0" id="Layer_1" xmlns="http://www.w3.org/2000/svg" xmlns:xlink="http://www.w3.org/1999/xlink" x="0px" y="0px"
	 width="110px" height="90px" viewBox="0 0 110 90" enable-background="new 0 0 110 90" xml:space="preserve">
<g id="XMLID_490_">
	<g id="XMLID_530_">
		<path fill="#69BF70" d="M52.068,19.867c-0.38,0.381-1.145,0.235-1.707-0.326l0,0c-0.562-0.562-0.71-1.328-0.328-1.709l5.144-5.145
			c0.382-0.381,1.147-0.235,1.709,0.327l0,0c0.562,0.562,0.707,1.327,0.327,1.71L52.068,19.867z"/>
	</g>
	<g id="XMLID_527_">
		<path fill="#69BF70" d="M87.327,19.867c0.38,0.381,1.145,0.235,1.707-0.326l0,0c0.562-0.562,0.71-1.328,0.327-1.709l-5.144-5.145
			c-0.382-0.381-1.147-0.235-1.709,0.327l0,0c-0.562,0.562-0.707,1.327-0.327,1.71L87.327,19.867z"/>
	</g>
	<g id="XMLID_524_">
		<path fill="#69BF70" d="M84.706,13.694c0,0.707-0.545,1.28-1.222,1.28H56.017c-0.677,0-1.222-0.573-1.222-1.28l0,0
			c0-0.707,0.545-1.28,1.222-1.28h27.467C84.161,12.414,84.706,12.987,84.706,13.694L84.706,13.694z"/>
	</g>
	<g id="XMLID_521_">
		<path fill="#69BF70" d="M19.178,15.295c0-0.707,0.572-1.28,1.28-1.28l0,0c0.707,0,1.28,0.572,1.28,1.28v3.519
			c0,0.707-0.572,1.28-1.28,1.28l0,0c-0.707,0-1.28-0.573-1.28-1.28V15.295z"/>
	</g>
	<g id="XMLID_518_">
		<path fill="#69BF70" d="M28.35,15.187c0-0.707,0.572-1.28,1.28-1.28l0,0c0.707,0,1.28,0.572,1.28,1.28v3.519
			c0,0.707-0.573,1.28-1.28,1.28l0,0c-0.707,0-1.28-0.573-1.28-1.28V15.187z"/>
	</g>
	<g id="XMLID_515_">
		<path fill="#69BF70" d="M19.178,15.121c0-0.679,0.587-1.227,1.312-1.227h9.107c0.725,0,1.312,0.549,1.312,1.227l0,0
			c0,0.677-0.587,1.226-1.312,1.226H20.49C19.766,16.347,19.178,15.798,19.178,15.121L19.178,15.121z"/>
	</g>
	<g id="XMLID_512_">
		<path fill="#69BF70" d="M91.796,80.874H17.151c-4.939,0-8.957-4.019-8.957-8.958V26.704c0-4.939,4.018-8.958,8.957-8.958h74.645
			c4.939,0,8.957,4.019,8.957,8.958v45.212C100.753,76.855,96.735,80.874,91.796,80.874z M17.151,20.306
			c-3.528,0-6.398,2.87-6.398,6.398v45.212c0,3.528,2.87,6.398,6.398,6.398h74.645c3.528,0,6.398-2.87,6.398-6.398V26.704
			c0-3.528-2.87-6.398-6.398-6.398H17.151z"/>
	</g>
	<g id="XMLID_509_">
		<path fill="#69BF70" d="M69.618,72.344c-12.701,0-23.033-10.333-23.033-23.033s10.332-23.033,23.033-23.033
			c12.7,0,23.032,10.333,23.032,23.033S82.318,72.344,69.618,72.344z M69.618,28.837c-11.29,0-20.475,9.185-20.475,20.474
			s9.185,20.474,20.475,20.474c11.289,0,20.474-9.185,20.474-20.474S80.907,28.837,69.618,28.837z"/>
	</g>
	<g id="XMLID_506_">
		<path fill="#69BF70" d="M69.618,67.012c-9.76,0-17.699-7.941-17.699-17.701s7.939-17.701,17.699-17.701
			c9.761,0,17.701,7.941,17.701,17.701S79.379,67.012,69.618,67.012z M69.618,34.169c-8.349,0-15.141,6.792-15.141,15.142
			s6.792,15.142,15.141,15.142c8.35,0,15.143-6.792,15.143-15.142S77.968,34.169,69.618,34.169z"/>
	</g>
	<g id="XMLID_503_">
		<path fill="#69BF70" d="M25.896,41.633c-3.646,0-6.61-2.966-6.61-6.612s2.965-6.612,6.61-6.612c3.646,0,6.612,2.966,6.612,6.612
			S29.543,41.633,25.896,41.633z M25.896,30.969c-2.234,0-4.052,1.818-4.052,4.052s1.817,4.052,4.052,4.052
			c2.235,0,4.054-1.818,4.054-4.052S28.132,30.969,25.896,30.969z"/>
	</g>
	<g id="XMLID_500_">
		<path fill="#69BF70" d="M37.625,55.121c0,0.678-0.55,1.227-1.227,1.227H20.51c-0.677,0-1.227-0.549-1.227-1.227l0,0
			c0-0.677,0.55-1.226,1.227-1.226h15.888C37.075,53.895,37.625,54.444,37.625,55.121L37.625,55.121z"/>
	</g>
	<g id="XMLID_497_">
		<path fill="#69BF70" d="M41.251,60.667c0,0.678-0.657,1.227-1.47,1.227H20.753c-0.812,0-1.47-0.548-1.47-1.227l0,0
			c0-0.677,0.657-1.226,1.47-1.226h19.029C40.594,59.441,41.251,59.99,41.251,60.667L41.251,60.667z"/>
	</g>
	<g id="XMLID_494_">
		<path fill="#69BF70" d="M45.518,66.533c0,0.679-0.787,1.227-1.762,1.227H20.94c-0.975,0-1.762-0.548-1.762-1.227l0,0
			c0-0.677,0.787-1.226,1.762-1.226h22.815C44.73,65.307,45.518,65.855,45.518,66.533L45.518,66.533z"/>
	</g>
	<g id="XMLID_491_">
		<path fill="#69BF70" d="M33.916,31.552c-1.381-3.2-4.526-5.267-8.013-5.267s-6.632,2.067-8.012,5.266l-2.35-1.014
			c1.785-4.138,5.853-6.812,10.361-6.812s8.576,2.674,10.362,6.812L33.916,31.552z"/>
	</g>
</g>
</svg>
