<?xml version="1.0" encoding="utf-8"?>
<!-- Generator: Adobe Illustrator 17.0.0, SVG Export Plug-In . SVG Version: 6.00 Build 0)  -->
<!DOCTYPE svg PUBLIC "-//W3C//DTD SVG 1.0//EN" "http://www.w3.org/TR/2001/REC-SVG-20010904/DTD/svg10.dtd">
<svg version="1.0" id="Layer_1" xmlns="http://www.w3.org/2000/svg" xmlns:xlink="http://www.w3.org/1999/xlink" x="0px" y="0px"
	 width="80px" height="94.667px" viewBox="0 0 80 94.667" enable-background="new 0 0 80 94.667" xml:space="preserve">
<g id="XMLID_539_">
	<path fill="#69BF70" d="M23.448,85.446c-4.994,0-8.76-1.846-10.333-5.065c-2.836-5.839,2.327-14.019,11.753-18.625
		c2.795-1.359,5.767-2.274,8.596-2.647c1.432-0.192,2.884-1.25,2.884-2.902V21.019c0-2.822,2.289-5.119,5.103-5.122l1.781-0.003
		c1.181,0,2.168,0.005,2.512,0.02c0.27,0.012,6.373,0.034,12.692,2.962c5.787,2.682,12.959,8.413,14.264,20.483
		c0.131,1.213-0.036,2.032-0.526,2.578c-0.335,0.373-0.801,0.579-1.313,0.579l0,0c-0.717,0-1.487-0.388-2.424-1.22
		c-2.741-2.417-8.17-5.49-18.447-6.379c-1.45-0.126-2.625,1.023-2.625,2.513v24.745c0,0.522,0.021,1.125,0.043,1.768
		c0.074,2.167,0.158,4.624-0.375,6.376c-1.404,4.636-6.01,9.33-12.02,12.25C31.211,84.424,27.104,85.446,23.448,85.446z
		 M43.232,18.267l-1.777,0.002c-1.508,0.001-2.734,1.235-2.734,2.75v35.188c0,2.661-2.079,4.87-4.943,5.254
		c-2.583,0.34-5.302,1.18-7.869,2.428c-7.958,3.888-12.84,10.966-10.66,15.454c1.158,2.37,4.147,3.731,8.2,3.731
		c3.303,0,7.041-0.937,10.526-2.637c5.436-2.641,9.569-6.782,10.788-10.806c0.418-1.376,0.338-3.722,0.274-5.606
		c-0.023-0.672-0.044-1.303-0.044-1.849V37.43c0-2.841,2.368-5.114,5.201-4.876c10.921,0.945,16.803,4.31,19.815,6.966
		c0.132,0.118,0.249,0.213,0.351,0.292c-0.004-0.061-0.01-0.126-0.018-0.197c-2.278-21.086-23.722-21.329-24.634-21.329
		C45.317,18.271,44.368,18.267,43.232,18.267z"/>
</g>
</svg>
