<?xml version="1.0" encoding="utf-8"?>
<!-- Generator: Adobe Illustrator 17.0.0, SVG Export Plug-In . SVG Version: 6.00 Build 0)  -->
<!DOCTYPE svg PUBLIC "-//W3C//DTD SVG 1.0//EN" "http://www.w3.org/TR/2001/REC-SVG-20010904/DTD/svg10.dtd">
<svg version="1.0" id="Layer_1" xmlns="http://www.w3.org/2000/svg" xmlns:xlink="http://www.w3.org/1999/xlink" x="0px" y="0px"
	 width="232.239px" height="189px" viewBox="0 0 232.239 189" enable-background="new 0 0 232.239 189" xml:space="preserve">
<g id="XMLID_275_">
	<path id="XMLID_280_" fill="#C4443B" d="M97.651,158.536C97.65,158.536,97.65,158.536,97.651,158.536
		c-5.351-0.001-10.338-1.706-14.824-5.071C69.432,143.42,22.778,95.372,20.798,93.331l0.448-3.922
		c0.848-0.546,85.109-54.854,108.327-68.121l1.244-0.711l1.255,0.692c10.718,5.914,64.395,39.185,66.675,40.599
		c0.3,0.2,5.528,3.782,6.168,10.358c0.513,5.28-2.032,10.764-7.567,16.298c-11.905,11.904-81.38,63.149-84.331,65.325
		C112.7,154.073,106.251,158.536,97.651,158.536z M26.635,92.01c9.552,9.79,47.786,48.773,59.253,57.372
		c3.583,2.687,7.54,4.05,11.761,4.051c6.938,0,12.338-3.692,12.392-3.73c0.667-0.492,72.062-53.153,83.698-64.787
		c4.404-4.405,6.455-8.508,6.096-12.197c-0.403-4.137-3.821-6.542-3.855-6.564c-0.463-0.285-52.033-32.251-65.126-39.716
		C108.647,39.314,40.844,82.867,26.635,92.01z"/>
	<path id="XMLID_279_" fill="#C4443B" d="M95.158,178.017c-4.901,0-10.139-1.22-14.934-4.816
		c-13.394-10.046-57.911-55.955-59.799-57.905l-0.719-0.742V91.926l1.541-2.517l3.562,2.517v20.56
		c5.906,6.074,46.308,47.506,58.477,56.632c11.356,8.514,26.809,0.018,28.274-0.821c3.626-2.802,78.885-60.946,84.88-66.341
		c7.796-7.016,8.391-20.941,1.678-33.76l4.521-2.368c7.785,14.864,6.77,31.323-2.786,39.922
		c-6.253,5.628-82.078,64.195-85.303,66.686C114.55,172.435,105.173,178.016,95.158,178.017z"/>
	<path id="XMLID_278_" fill="#C4443B" d="M168.398,46.187c-1.116,0-71.769,42.764-71.769,42.764l18.593,2.231l-1.116,15.618
		l64.704-53.92"/>
	<path id="XMLID_277_" fill="#C4443B" d="M97.232,163.007c-2.484,0-4.709-0.346-6.6-0.827c-6.423-1.632-10.379-5.031-10.543-5.175
		l-57.687-55.984l0.712-0.732l57.666,55.965c0.136,0.116,15.725,13.311,34.546-0.854c21.349-16.064,87.79-68.405,88.459-68.931
		l0.632,0.801c-0.669,0.527-67.119,52.874-88.477,68.945C109.01,161.431,102.532,163.007,97.232,163.007z"/>
	<path id="XMLID_276_" fill="#C4443B" d="M98.473,168.742c-9.652,0-17.216-5.053-17.331-5.131L24.15,107.894l0.714-0.73
		l56.924,55.66c0.101,0.058,16.995,11.322,32.201-0.511c17.222-13.404,88.609-68.661,89.328-69.219l0.624,0.807
		c-0.719,0.556-72.104,55.813-89.326,69.216C109.177,167.35,103.537,168.742,98.473,168.742z"/>
</g>
</svg>
