<?xml version="1.0" encoding="utf-8"?>
<!-- Generator: Adobe Illustrator 17.0.0, SVG Export Plug-In . SVG Version: 6.00 Build 0)  -->
<!DOCTYPE svg PUBLIC "-//W3C//DTD SVG 1.0//EN" "http://www.w3.org/TR/2001/REC-SVG-20010904/DTD/svg10.dtd">
<svg version="1.0" id="Layer_1" xmlns="http://www.w3.org/2000/svg" xmlns:xlink="http://www.w3.org/1999/xlink" x="0px" y="0px"
	 width="70.713px" height="57.163px" viewBox="0 0 70.713 57.163" enable-background="new 0 0 70.713 57.163" xml:space="preserve">
<g id="XMLID_254_">
	<g id="XMLID_256_">
		<path id="XMLID_257_" fill-rule="evenodd" clip-rule="evenodd" fill="#C4443B" d="M6.381,15.231v25.945
			c0,3.582,0.009,7.088,0.009,7.833c0.001,0.745,2.904,1.351,6.488,1.351h42.889c3.583,0,6.487-2.904,6.487-6.485V15.231
			c0-5.97-2.651-7.7-6.064-8.784c-5.9-1.871-11.172-2.18-18.201,0.071c-0.586,0.188-3.894,1.467-4.463,1.268
			c-0.32-0.11-0.99-0.643-1.439-0.848c-1.746-0.787-4.154-1.247-6.027-1.58C19.503,4.189,13.682,5.633,7.654,8.202
			c0,0-0.285,0.122-0.635,0.271C6.666,8.623,6.381,11.65,6.381,15.231z M33.079,10.046c0,0,0.054,0.02,0.119,0.047
			c0.061,0.025,0.117,3.239,0.117,7.179v18.644c0,3.94-0.111,7.096-0.245,7.048l-0.245-0.084c-8.15-2.862-14.716-2.854-22.866,0
			c0,0-0.109,0.036-0.244,0.086c-0.131,0.047-0.242-3.11-0.242-7.049V17.267c0-3.94,0.051-7.154,0.117-7.179l0.116-0.045
			c0.957-0.377,1.925-0.726,2.905-1.039C20.165,6.581,25.776,7.185,33.079,10.046z M58.928,10.046c0,0,0.053,0.02,0.116,0.047
			c0.066,0.023,0.117,3.24,0.117,7.179v18.644c0,3.94-0.109,7.096-0.245,7.049l-0.243-0.086c-8.16-2.858-14.703-2.859-22.865,0
			c0,0-0.109,0.036-0.245,0.085c-0.134,0.048-0.245-3.108-0.245-7.048V17.27c0-3.94,0.052-7.154,0.118-7.179l0.115-0.045
			c0.96-0.378,1.931-0.726,2.91-1.041C46.022,6.585,51.621,7.176,58.928,10.046z"/>
	</g>
	<path id="XMLID_255_" fill-rule="evenodd" clip-rule="evenodd" fill="#C4443B" d="M42.714,7.456c0,0,3.094,10.055,0,19.594
		c3.352-2.062,3.609-3.609,3.609-3.609s1.289,2.32,1.289,3.867c3.867-5.672,2.32-14.953,1.031-19.594
		C47.221,2.593,42.714,7.456,42.714,7.456z"/>
</g>
</svg>
