<?xml version="1.0" encoding="utf-8"?>
<!-- Generator: Adobe Illustrator 17.0.0, SVG Export Plug-In . SVG Version: 6.00 Build 0)  -->
<!DOCTYPE svg PUBLIC "-//W3C//DTD SVG 1.0//EN" "http://www.w3.org/TR/2001/REC-SVG-20010904/DTD/svg10.dtd">
<svg version="1.0" id="Layer_1" xmlns="http://www.w3.org/2000/svg" xmlns:xlink="http://www.w3.org/1999/xlink" x="0px" y="0px"
	 width="111.996px" height="85.333px" viewBox="0 0 111.996 85.333" enable-background="new 0 0 111.996 85.333"
	 xml:space="preserve">
<g id="XMLID_333_">
	<g id="XMLID_334_">
		<path id="XMLID_346_" fill="none" stroke="#FFFFFF" stroke-width="2.6645" stroke-miterlimit="10" d="M88.787,43.496
			c1.253,19.825-15.084,36.171-34.909,34.927C37.526,77.397,24.253,64.135,23.21,47.784C21.946,27.95,38.296,11.59,58.132,12.843
			C74.484,13.876,87.753,27.144,88.787,43.496z"/>
		<path id="XMLID_345_" fill="none" stroke="#FFFFFF" stroke-width="2.6645" stroke-miterlimit="10" d="M80.449,43.806
			c1.189,15.111-11.323,27.626-26.433,26.44c-11.889-0.933-21.525-10.562-22.468-22.45c-1.2-15.12,11.324-27.649,26.445-26.454
			C69.882,22.282,79.514,31.916,80.449,43.806z"/>
		<path id="XMLID_342_" fill="#FFFFFF" d="M57.66,46.035c0,0.846-0.744,1.53-1.663,1.53l0,0c-0.917,0-1.662-0.684-1.662-1.53V32.946
			c0-0.846,0.744-1.53,1.662-1.53l0,0c0.918,0,1.663,0.684,1.663,1.53V46.035z"/>
		<path id="XMLID_339_" fill="#FFFFFF" d="M55.999,47.565c-0.919,0-1.663-0.744-1.663-1.663l0,0c0-0.916,0.744-1.66,1.663-1.66
			h14.215c0.918,0,1.663,0.744,1.663,1.66l0,0c0,0.918-0.744,1.663-1.663,1.663H55.999z"/>
		
			<line id="XMLID_338_" fill="none" stroke="#FFFFFF" stroke-width="2.6645" stroke-miterlimit="10" x1="55.999" y1="20.98" x2="55.999" y2="25.955"/>
		
			<line id="XMLID_337_" fill="none" stroke="#FFFFFF" stroke-width="2.6645" stroke-miterlimit="10" x1="56.214" y1="65.004" x2="56.214" y2="69.978"/>
		
			<line id="XMLID_336_" fill="none" stroke="#FFFFFF" stroke-width="2.6645" stroke-miterlimit="10" x1="80.714" y1="45.686" x2="75.739" y2="45.686"/>
		
			<line id="XMLID_335_" fill="none" stroke="#FFFFFF" stroke-width="2.6645" stroke-miterlimit="10" x1="36.69" y1="45.902" x2="31.715" y2="45.902"/>
	</g>
</g>
</svg>
