<?xml version="1.0" encoding="utf-8"?>
<!-- Generator: Adobe Illustrator 17.0.0, SVG Export Plug-In . SVG Version: 6.00 Build 0)  -->
<!DOCTYPE svg PUBLIC "-//W3C//DTD SVG 1.0//EN" "http://www.w3.org/TR/2001/REC-SVG-20010904/DTD/svg10.dtd">
<svg version="1.0" id="Layer_1" xmlns="http://www.w3.org/2000/svg" xmlns:xlink="http://www.w3.org/1999/xlink" x="0px" y="0px"
	 width="111.996px" height="89.333px" viewBox="0 0 111.996 89.333" enable-background="new 0 0 111.996 89.333"
	 xml:space="preserve">
<g id="XMLID_724_">
	<g id="XMLID_725_">
		<path id="XMLID_735_" fill="#FFFFFF" d="M55.759,47.358c-0.187,0-0.374-0.041-0.547-0.123l-28.62-13.544
			c-0.541-0.256-0.831-0.852-0.7-1.436c0.117-0.518,0.539-0.904,1.051-0.983C28.144,31,46.25,25.811,58.216,22.364
			c0.247-0.071,0.508-0.067,0.753,0.014l28.365,9.327c0.506,0.167,0.856,0.63,0.878,1.162c0.022,0.533-0.289,1.023-0.78,1.23
			l-31.176,13.16C56.097,47.325,55.928,47.358,55.759,47.358z M30.809,32.859l24.979,11.82l27.505-11.611l-24.75-8.139
			C42.37,29.589,34.586,31.805,30.809,32.859z"/>
		<path id="XMLID_734_" fill="#FFFFFF" d="M55.886,83.772c-0.204,0-0.407-0.049-0.594-0.146L26.544,68.55
			c-0.421-0.221-0.685-0.657-0.685-1.132V32.536c0-0.706,0.572-1.278,1.278-1.278s1.278,0.572,1.278,1.278v34.108L54.608,80.38
			V46.208c0-0.706,0.572-1.278,1.278-1.278s1.278,0.572,1.278,1.278v36.286c0,0.447-0.234,0.862-0.617,1.094
			C56.345,83.711,56.116,83.772,55.886,83.772z"/>
		<path id="XMLID_733_" fill="#FFFFFF" d="M55.886,83.772c-0.226,0-0.451-0.06-0.652-0.179c-0.388-0.23-0.627-0.648-0.627-1.1
			V46.208c0-0.706,0.572-1.278,1.278-1.278s1.278,0.572,1.278,1.278v34.129L85.4,64.871V33.175c0-0.706,0.572-1.278,1.278-1.278
			c0.706,0,1.278,0.572,1.278,1.278v32.454c0,0.467-0.255,0.897-0.664,1.121L56.501,83.615
			C56.309,83.72,56.098,83.772,55.886,83.772z"/>
		<polygon id="XMLID_732_" fill="#FFFFFF" points="41.464,29.27 67.833,41.105 67.833,75.986 75.515,71.833 75.515,37.783 
			48.939,26.986 		"/>
		<path id="XMLID_731_" fill="#FFFFFF" d="M74.061,28.855c-0.83,0-30.729,11.004-30.729,11.004v36.127l-6.852-3.53V37.16
			l30.521-10.797L74.061,28.855z"/>
		<path id="XMLID_727_" fill="#FFFFFF" d="M55.583,35.116c-0.391,0-0.764-0.18-1.009-0.493c-0.192-0.247-0.603-0.782-1.155-1.539
			c-0.034,0-0.068,0.001-0.102,0.001c-3.65,0-6.423-2.648-9.121-5.225c-4.45-4.25-9.051-8.646-18.645-4.676
			c-0.654,0.27-1.4-0.04-1.67-0.692c-0.27-0.653,0.04-1.4,0.692-1.671c11.133-4.604,16.82,0.825,21.389,5.189
			c2.05,1.958,3.701,3.457,5.407,4.127c-3.595-5.415-8.566-14.307-6.607-19.653c0.539-1.471,1.871-3.368,5.161-4.058
			c4.606-0.964,7.903,1.175,9.287,6.027c0.451,1.583,0.664,3.721,0.671,6.014c2.861-3.978,6.577-6.846,10.672-7.186
			c3.836-0.318,6.914,1.916,8.448,6.132c0.976,2.685,0.762,5.212-0.636,7.511c-4.731,7.778-21.888,10.087-22.616,10.181
			C55.692,35.113,55.638,35.116,55.583,35.116z M59.517,24.101c-0.521,3.949-1.575,7.403-2.991,8.299
			c3.79-0.631,12.845-5.104,16.592-10.636c1.819-2.685,1.516-8.316-2.355-7.934C66.237,14.276,62.117,18.686,59.517,24.101z
			 M50.447,8.929c-1.771,0.191-2.818,1.162-3.284,2.435c-1.633,4.453,3.731,13.628,7.463,19.001c0.02-0.005,0.04-0.01,0.06-0.015
			C55.664,27.048,56.747,8.25,50.447,8.929z"/>
	</g>
</g>
</svg>
