<?xml version="1.0" encoding="utf-8"?>
<!-- Generator: Adobe Illustrator 17.0.0, SVG Export Plug-In . SVG Version: 6.00 Build 0)  -->
<!DOCTYPE svg PUBLIC "-//W3C//DTD SVG 1.0//EN" "http://www.w3.org/TR/2001/REC-SVG-20010904/DTD/svg10.dtd">
<svg version="1.0" id="Layer_1" xmlns="http://www.w3.org/2000/svg" xmlns:xlink="http://www.w3.org/1999/xlink" x="0px" y="0px"
	 width="111.996px" height="96px" viewBox="0 0 111.996 96" enable-background="new 0 0 111.996 96" xml:space="preserve">
<g id="XMLID_772_">
	<path id="XMLID_774_" fill="#FFFFFF" d="M75.479,41.475l-3.501-0.25L51.562,17.317c-1.611-2.054-3.167-3.082-4.664-3.082h-2.834
		L57.002,41.88l-17.951,1.332l-7.015-7.848h-5.433l7.193,11l-7.181,12.079h5.426l7.011-7.848l17.95,1.335L44.063,79.713h2.834
		c1.498,0,3.054-1.027,4.664-3.082l20.417-23.908l3.501-0.25c0.831-0.112,1.594-0.209,2.289-0.292
		c0.695-0.083,1.598-0.264,2.708-0.542c1.11-0.277,2.207-0.86,3.291-1.748c1.084-0.888,1.626-1.861,1.626-2.917
		C85.393,43.866,82.087,42.033,75.479,41.475z"/>
</g>
</svg>
