<?xml version="1.0" encoding="utf-8"?>
<!-- Generator: Adobe Illustrator 17.0.0, SVG Export Plug-In . SVG Version: 6.00 Build 0)  -->
<!DOCTYPE svg PUBLIC "-//W3C//DTD SVG 1.0//EN" "http://www.w3.org/TR/2001/REC-SVG-20010904/DTD/svg10.dtd">
<svg version="1.0" id="Layer_1" xmlns="http://www.w3.org/2000/svg" xmlns:xlink="http://www.w3.org/1999/xlink" x="0px" y="0px"
	 width="111.996px" height="92.667px" viewBox="0 0 111.996 92.667" enable-background="new 0 0 111.996 92.667"
	 xml:space="preserve">
<g id="XMLID_483_">
	<path fill="#FFFFFF" d="M55.919,51.069c-1.148,0-2.271-0.244-3.338-0.726L28.322,39.396c-7.068-3.188-7.068-3.188-7.232-3.562
		c-0.37-0.983-0.206-1.051,2.546-2.18c1.235-0.507,2.939-1.204,4.815-1.969l38.294-15.619c1.003-0.409,6.07-2.451,7.271-2.451
		c0.576,0,0.923,0.346,1.055,0.669c0.141,0.348,0.332,0.819-2.496,8.054l-9.233,23.618C62.127,49.062,59.214,51.069,55.919,51.069z
		 M24.585,35.469c1.167,0.528,2.748,1.243,4.575,2.067L53.42,48.484c0.802,0.361,1.643,0.545,2.499,0.545
		c2.449,0,4.617-1.498,5.522-3.815l9.233-23.618c0.944-2.416,1.643-4.363,2.046-5.586c-1.126,0.364-2.912,1.01-5.206,1.945
		L29.221,33.574C27.372,34.327,25.769,34.984,24.585,35.469z"/>
</g>
<g id="XMLID_477_">
	<path fill="#FFFFFF" d="M88.815,51.587c0.526,0.224,1.124-0.006,1.335-0.51l0,0c0.213-0.502-0.042-1.089-0.568-1.312l-20.577-8.653
		c-0.525-0.221-1.123,0.007-1.335,0.51l0,0c-0.212,0.504,0.043,1.091,0.569,1.313L88.815,51.587z"/>
</g>
<g id="XMLID_474_">
	<path fill="#FFFFFF" d="M38.765,39.81c-1.791,0-3.385-1.071-4.062-2.73c-0.443-1.085-0.437-2.276,0.018-3.356
		c0.454-1.079,1.302-1.918,2.387-2.36c0.53-0.216,1.087-0.325,1.655-0.325c1.792,0,3.386,1.071,4.062,2.729
		c0.913,2.238-0.166,4.804-2.404,5.718C39.89,39.701,39.333,39.81,38.765,39.81z M38.762,31.802c-0.468,0-0.928,0.091-1.366,0.27
		c-0.896,0.365-1.596,1.057-1.971,1.948c-0.375,0.891-0.38,1.875-0.015,2.771c0.559,1.37,1.875,2.255,3.354,2.255
		c0.469,0,0.928-0.091,1.366-0.27c1.849-0.754,2.739-2.872,1.985-4.72C41.558,32.687,40.241,31.802,38.762,31.802z"/>
</g>
<g id="XMLID_471_">
	<path fill="#FFFFFF" d="M52.993,27.137c0.18,0.441-0.032,0.945-0.473,1.125l-8.202,3.345c-0.441,0.18-0.945-0.032-1.125-0.473l0,0
		c-0.18-0.441,0.032-0.945,0.473-1.125l8.202-3.345C52.309,26.484,52.813,26.696,52.993,27.137L52.993,27.137z"/>
</g>
<g id="XMLID_468_">
	<path fill="#FFFFFF" d="M57.432,28.121c0.18,0.441-0.032,0.945-0.473,1.125l-9.427,3.845c-0.441,0.18-0.945-0.032-1.125-0.473l0,0
		c-0.18-0.441,0.032-0.945,0.473-1.125l9.427-3.845C56.749,27.468,57.252,27.68,57.432,28.121L57.432,28.121z"/>
</g>
<g id="XMLID_465_">
	<path fill="#FFFFFF" d="M55.78,31.839c0.18,0.441-0.032,0.945-0.473,1.125l-8.894,3.628c-0.441,0.18-0.945-0.032-1.125-0.473l0,0
		c-0.18-0.441,0.032-0.945,0.473-1.125l8.894-3.628C55.097,31.186,55.6,31.398,55.78,31.839L55.78,31.839z"/>
</g>
<g id="XMLID_464_">
	<path fill="#FFFFFF" d="M38.467,32.746c-0.357,0.201-0.576,0.547-0.637,0.922c-0.352-0.142-0.762-0.133-1.119,0.068
		c-0.624,0.351-0.844,1.142-0.493,1.765c0.778,1.38,3.633,1.754,3.633,1.754s1.159-2.636,0.381-4.016
		C39.881,32.615,39.091,32.395,38.467,32.746z"/>
</g>
<path fill="#FFFFFF" d="M65.309,63.333l24.448-10.077c1.46-0.596,2.164-2.321,1.568-3.781l-14.09-34.572
	c-0.44-1.081-1.482-1.793-2.653-1.793c-0.37,0-0.732,0.065-1.076,0.205L22.24,34.222c-0.706,0.287-1.258,0.832-1.555,1.538
	s-0.302,1.588-0.014,2.294L30.94,63.333H11v2h90v-2H65.309z M41.861,63.333l4.683-11.437c0.22-0.527-0.008-1.287-0.51-1.5
	c-0.505-0.21-1.092,0.289-1.312,0.814l-5.002,12.122h-6.576L22.56,37.283c-0.082-0.201-0.08-0.477,0.006-0.68
	c0.085-0.203,0.243-0.387,0.444-0.469l51.267-20.923c0.098-0.04,0.2-0.067,0.305-0.067c0.333,0,0.64,0.202,0.765,0.507l14.09,34.544
	c0.17,0.419-0.031,1.004-0.45,1.174L59.908,63.333H41.861z"/>
</svg>
