<?xml version="1.0" encoding="utf-8"?>
<!-- Generator: Adobe Illustrator 17.0.0, SVG Export Plug-In . SVG Version: 6.00 Build 0)  -->
<!DOCTYPE svg PUBLIC "-//W3C//DTD SVG 1.0//EN" "http://www.w3.org/TR/2001/REC-SVG-20010904/DTD/svg10.dtd">
<svg version="1.0" id="Layer_1" xmlns="http://www.w3.org/2000/svg" xmlns:xlink="http://www.w3.org/1999/xlink" x="0px" y="0px"
	 width="111.996px" height="95.333px" viewBox="0 0 111.996 95.333" enable-background="new 0 0 111.996 95.333"
	 xml:space="preserve">
<g id="XMLID_739_">
	<path fill-rule="evenodd" clip-rule="evenodd" fill="#FFFFFF" d="M92.331,22h-2.056c-0.164-2.464-0.71-6.116-2.477-7.927
		c-0.753-0.772-1.69-1.18-2.709-1.18c-2.181,0-3.622,1.399-4.576,3.067c-0.322-0.729-0.72-1.381-1.215-1.887
		c-0.753-0.772-1.69-1.18-2.709-1.18c-2.181,0-3.622,1.399-4.576,3.067c-0.322-0.729-0.72-1.381-1.215-1.887
		c-0.753-0.772-1.69-1.18-2.709-1.18c-2.181,0-3.622,1.399-4.576,3.067c-0.322-0.729-0.72-1.381-1.215-1.887
		c-0.753-0.772-1.69-1.18-2.709-1.18c-2.181,0-3.622,1.399-4.576,3.067c-0.322-0.729-0.72-1.381-1.215-1.887
		c-0.753-0.772-1.69-1.18-2.709-1.18c-2.181,0-3.622,1.399-4.576,3.067c-0.322-0.729-0.72-1.381-1.215-1.887
		c-0.753-0.772-1.69-1.18-2.709-1.18c-2.181,0-3.622,1.399-4.576,3.067c-0.322-0.729-0.72-1.381-1.215-1.887
		c-0.753-0.772-1.69-1.18-2.709-1.18c-2.181,0-3.622,1.399-4.576,3.067c-0.322-0.729-0.72-1.381-1.215-1.887
		c-0.753-0.772-1.69-1.18-2.709-1.18c-5.308,0-6.284,8.261-6.323,8.612c-0.026,0.233,0.033,0.447,0.123,0.645
		C16.875,22.732,15,24.979,15,27.669v50.661C15,81.462,17.538,84,20.669,84h71.661C95.462,84,98,81.462,98,78.331V27.669
		C98,24.538,95.462,22,92.331,22z M85.088,15.393c0.349,0,0.633,0.131,0.92,0.425c1.058,1.083,1.578,3.81,1.759,6.182h-5.992
		c-0.039-0.594-0.1-1.252-0.196-1.942C82.091,18.031,83.189,15.393,85.088,15.393z M76.588,15.393c0.349,0,0.633,0.131,0.92,0.425
		c0.763,0.781,1.245,2.418,1.523,4.16c-0.185,0.841-0.256,1.439-0.266,1.528c-0.019,0.172-0.002,0.339,0.044,0.495h-5.535
		c-0.039-0.594-0.1-1.252-0.196-1.942C73.591,18.031,74.689,15.393,76.588,15.393z M68.088,15.393c0.349,0,0.633,0.131,0.92,0.425
		c0.763,0.781,1.245,2.418,1.523,4.16c-0.185,0.841-0.256,1.439-0.266,1.528c-0.019,0.172-0.002,0.339,0.044,0.495h-5.535
		c-0.039-0.594-0.1-1.252-0.196-1.942C65.091,18.031,66.189,15.393,68.088,15.393z M59.588,15.393c0.349,0,0.633,0.131,0.92,0.425
		c0.763,0.781,1.245,2.418,1.523,4.16c-0.185,0.841-0.256,1.439-0.266,1.528c-0.019,0.172-0.002,0.339,0.044,0.495h-5.535
		c-0.039-0.594-0.1-1.252-0.196-1.942C56.591,18.031,57.689,15.393,59.588,15.393z M51.088,15.393c0.349,0,0.633,0.131,0.92,0.425
		c0.763,0.781,1.245,2.418,1.523,4.16c-0.185,0.841-0.256,1.439-0.266,1.528c-0.019,0.172-0.002,0.339,0.044,0.495h-5.535
		c-0.039-0.594-0.1-1.252-0.196-1.942C48.091,18.031,49.189,15.393,51.088,15.393z M42.588,15.393c0.349,0,0.633,0.131,0.92,0.425
		c0.763,0.781,1.245,2.418,1.523,4.16c-0.185,0.841-0.256,1.439-0.266,1.528c-0.019,0.172-0.002,0.339,0.044,0.495h-5.535
		c-0.039-0.594-0.1-1.252-0.196-1.942C39.591,18.031,40.689,15.393,42.588,15.393z M34.088,15.393c0.349,0,0.633,0.131,0.92,0.425
		c0.763,0.781,1.245,2.418,1.523,4.16c-0.185,0.841-0.256,1.439-0.266,1.528c-0.019,0.172-0.002,0.339,0.044,0.495h-5.535
		c-0.039-0.594-0.1-1.252-0.196-1.942C31.091,18.031,32.189,15.393,34.088,15.393z M25.588,15.393c0.349,0,0.633,0.131,0.92,0.425
		c0.763,0.781,1.245,2.418,1.523,4.16c-0.185,0.841-0.256,1.439-0.266,1.528c-0.019,0.172-0.002,0.339,0.044,0.495h-6.131
		c0.023-0.073,0.062-0.139,0.071-0.218C21.937,20.125,23.044,15.393,25.588,15.393z M88,70.746C88,73.096,86.096,75,83.746,75
		H27.254C24.904,75,23,73.096,23,70.746V35.254C23,32.904,24.904,31,27.254,31h56.493C86.096,31,88,32.904,88,35.254V70.746z"/>
	<path id="XMLID_740_" fill="#FFFFFF" d="M60.945,42.713c-2.008,0-3.779,0.95-4.943,2.405c-1.164-1.455-2.935-2.405-4.943-2.405
		c-3.51,0-6.355,2.845-6.355,6.355c0,7.767,11.298,16.24,11.298,16.24S67.3,56.835,67.3,49.068
		C67.3,45.558,64.455,42.713,60.945,42.713z"/>
</g>
</svg>
