<?xml version="1.0" encoding="utf-8"?>
<!-- Generator: Adobe Illustrator 17.0.0, SVG Export Plug-In . SVG Version: 6.00 Build 0)  -->
<!DOCTYPE svg PUBLIC "-//W3C//DTD SVG 1.0//EN" "http://www.w3.org/TR/2001/REC-SVG-20010904/DTD/svg10.dtd">
<svg version="1.0" id="Layer_1" xmlns="http://www.w3.org/2000/svg" xmlns:xlink="http://www.w3.org/1999/xlink" x="0px" y="0px"
	 width="111.996px" height="111.992px" viewBox="0 0 111.996 111.992" enable-background="new 0 0 111.996 111.992"
	 xml:space="preserve">
<g id="XMLID_754_">
	<g id="XMLID_755_">
		<path id="XMLID_770_" fill="#FFFFFF" d="M-221.887,65.23c-1.386,0-2.608,0.656-3.411,1.66c-0.803-1.004-2.025-1.66-3.411-1.66
			c-2.423,0-4.386,1.964-4.386,4.386c0,5.361,7.798,11.209,7.798,11.209s7.796-5.848,7.796-11.209
			C-217.501,67.193-219.464,65.23-221.887,65.23z"/>
		<path id="XMLID_769_" fill="#FFFFFF" d="M-231.279,8.194c1.032,0,1.872,0.84,1.872,1.872v27.498c0,1.032-0.84,1.872-1.872,1.872
			h-7.609c-2.517,0-6.118,1.109-8.199,2.525l-10.083,6.863c-1.069,0.727-1.875,1.225-2.367,1.509
			c-0.492-0.284-1.298-0.782-2.367-1.509l-10.083-6.863c-2.081-1.416-5.682-2.525-8.199-2.525h-7.609
			c-1.032,0-1.872-0.84-1.872-1.872V10.066c0-1.032,0.84-1.872,1.872-1.872h26.346h2.985h0.083h0.083h2.985L-231.279,8.194
			 M-231.279,6.194h-24.035c-1.469,0-2.582,0-2.985,0c0,0-0.027,0-0.083,0c-0.056,0-0.083,0-0.083,0s0.057,0,0.165,0
			c0,0-1.289,0-3.151,0h-26.345c-2.13,0-3.872,1.743-3.872,3.872v27.498c0,2.13,1.743,3.872,3.872,3.872h7.609
			c2.13,0,5.313,0.98,7.074,2.179l10.083,6.863c1.685,1.147,3.174,2.03,3.414,2.03c0.011,0,0.019-0.002,0.025-0.005
			c0.02-0.013,0.038-0.026,0.053-0.038c-0.082-0.066-0.086-0.116,0-0.116s0.082,0.049,0,0.116c0.015,0.012,0.033,0.025,0.053,0.038
			c0.006,0.004,0.014,0.005,0.025,0.005c0.24,0,1.73-0.884,3.414-2.03l10.083-6.863c1.761-1.198,4.944-2.179,7.074-2.179h7.609
			c2.13,0,3.872-1.743,3.872-3.872V10.066C-227.406,7.936-229.149,6.194-231.279,6.194L-231.279,6.194z"/>
		<g id="XMLID_768_">
			<path fill="#FFFFFF" d="M-216.899,90.026h-16.026c-9.798,0-17.77-7.971-17.77-17.77c0-4.661,1.782-9.044,5.024-12.379
				c4.047-4.743,6.267-9.443,7.224-11.468c0.546-1.156,0.878-1.856,1.769-1.569c0.908,0.29,0.792,0.935,0.448,2.847
				c-0.188,1.023-0.014,1.861,0.528,2.566c1.188,1.544,3.92,2.12,5.038,2.234h13.764c9.798,0,17.77,7.971,17.77,17.769
				c0,4.745-1.849,9.207-5.206,12.563C-207.694,88.178-212.156,90.026-216.899,90.026z M-244.363,61.405
				c-2.796,2.943-4.331,6.778-4.331,10.852c0,8.695,7.074,15.77,15.77,15.77h16.025c4.21,0,8.169-1.641,11.15-4.62
				c2.979-2.979,4.62-6.938,4.62-11.149c0-8.695-7.074-15.769-15.77-15.769l-13.937-0.003v-0.007
				c-0.809-0.085-4.604-0.608-6.45-3.005c-0.331-0.43-0.582-0.892-0.751-1.384c-1.272,2.413-3.216,5.67-6.014,8.973l0.012,0.012
				c-0.051,0.051-0.102,0.102-0.152,0.153c-0.053,0.062-0.106,0.125-0.16,0.187L-244.363,61.405z"/>
		</g>
		<g id="XMLID_756_">
			<path id="XMLID_758_" fill="#FFFFFF" d="M-264.656,11.616l-6.625,6.625l11.743,11.744l11.744-11.744l-6.624-6.625H-264.656z
				 M-264.268,12.582h2.39l-2.353,5.157h-5.169L-264.268,12.582z M-269.437,18.705h5.357l2.992,8.35L-269.437,18.705z
				 M-249.676,17.739h-5.169l-2.352-5.157h2.39L-249.676,17.739z M-257.988,27.055l2.992-8.35h5.357L-257.988,27.055z
				 M-263.148,17.739l2.353-5.157h2.516l2.353,5.157H-263.148z M-259.538,28.41l-3.5-9.705h7.001L-259.538,28.41z"/>
			<g id="XMLID_757_">
				<path fill="#FFFFFF" d="M-247.511,39.726h-2.85c0-5.06-4.117-9.176-9.176-9.176c-5.059,0-9.176,4.117-9.176,9.176h-2.85
					c0-6.631,5.395-12.026,12.026-12.026C-252.906,27.7-247.511,33.095-247.511,39.726z"/>
			</g>
		</g>
	</g>
</g>
</svg>
