<?xml version="1.0" encoding="utf-8"?>
<!-- Generator: Adobe Illustrator 17.0.0, SVG Export Plug-In . SVG Version: 6.00 Build 0)  -->
<!DOCTYPE svg PUBLIC "-//W3C//DTD SVG 1.0//EN" "http://www.w3.org/TR/2001/REC-SVG-20010904/DTD/svg10.dtd">
<svg version="1.0" id="Layer_1" xmlns="http://www.w3.org/2000/svg" xmlns:xlink="http://www.w3.org/1999/xlink" x="0px" y="0px"
	 width="111.996px" height="102.667px" viewBox="0 0 111.996 102.667" enable-background="new 0 0 111.996 102.667"
	 xml:space="preserve">
<g id="XMLID_715_">
	<g id="XMLID_716_">
		<path id="XMLID_719_" fill="#FFFFFF" d="M73.815,29.424L55.998,50.238L38.18,29.424h20.49H73.815 M80.982,26.124H58.67H31.013
			l23.474,27.422v33.929l-14.873,5.345c0,0,5.966,2.944,15.674,2.944c4.855,0,10.644-0.736,17.094-2.944l-14.873-5.345V53.547
			L80.982,26.124L80.982,26.124z M58.67,26.124h-1.627H58.67L58.67,26.124z"/>
		<polygon id="XMLID_718_" fill="#FFFFFF" points="52.647,39.758 51.285,38.828 58.827,27.788 63.121,26.328 75.961,7.533 
			77.323,8.463 64.172,27.712 59.879,29.173 		"/>
		<ellipse id="XMLID_717_" fill="#FFFFFF" cx="70.445" cy="18.223" rx="6.197" ry="3.408"/>
	</g>
</g>
</svg>
