<?xml version="1.0" encoding="utf-8"?>
<!-- Generator: Adobe Illustrator 17.0.0, SVG Export Plug-In . SVG Version: 6.00 Build 0)  -->
<!DOCTYPE svg PUBLIC "-//W3C//DTD SVG 1.0//EN" "http://www.w3.org/TR/2001/REC-SVG-20010904/DTD/svg10.dtd">
<svg version="1.0" id="Layer_1" xmlns="http://www.w3.org/2000/svg" xmlns:xlink="http://www.w3.org/1999/xlink" x="0px" y="0px"
	 width="111.996px" height="90px" viewBox="0 0 111.996 90" enable-background="new 0 0 111.996 90" xml:space="preserve">
<g id="XMLID_704_">
	<g id="XMLID_705_">
		<path id="XMLID_710_" fill="#FFFFFF" d="M48.366,74.059L48.366,74.059c-2.622-0.001-5.064-0.836-7.262-2.484
			c-6.562-4.921-29.417-28.459-30.387-29.458l-1.062-1.095l1.282-0.827c0.416-0.268,41.694-26.872,53.068-33.372l0.609-0.348
			l0.615,0.339c5.25,2.897,31.546,19.196,32.663,19.889c0.147,0.098,2.708,1.852,3.021,5.074c0.252,2.586-0.996,5.273-3.707,7.984
			c-5.832,5.831-39.867,30.936-41.312,32.002C55.739,71.872,52.58,74.059,48.366,74.059z M13.577,41.469
			c4.679,4.796,23.41,23.893,29.027,28.106c1.755,1.316,3.694,1.984,5.762,1.984c3.399,0,6.044-1.809,6.071-1.827
			c0.327-0.241,35.302-26.039,41.002-31.738c2.157-2.158,3.162-4.168,2.986-5.975c-0.197-2.027-1.872-3.205-1.889-3.216
			c-0.227-0.14-25.49-15.799-31.904-19.456C53.753,15.654,20.538,36.99,13.577,41.469z"/>
		<path id="XMLID_709_" fill="#FFFFFF" d="M47.145,82.132c-2.401,0-4.967-0.598-7.316-2.359
			c-6.561-4.921-28.37-27.412-29.295-28.367l-0.352-0.363v-9.615h2.5v8.601c2.893,2.976,22.685,23.273,28.647,27.743
			c5.563,4.171,13.133,0.009,13.851-0.402c1.776-1.373,38.644-29.856,41.582-32.5c3.819-3.437,4.111-8.788,0.822-15.068l2.215-1.16
			c3.814,7.282,3.316,13.874-1.365,18.086c-3.063,2.757-40.209,31.448-41.788,32.668l-0.118,0.081
			C56.268,79.635,52.052,82.131,47.145,82.132z"/>
		<path id="XMLID_708_" fill="#FFFFFF" d="M83.025,19.021c-0.546,0-35.159,20.949-35.159,20.949l9.108,1.093l-0.546,7.651
			L88.125,22.3"/>
		<path id="XMLID_707_" fill="#FFFFFF" d="M48.373,76.038c-1.217,0-2.307-0.169-3.233-0.405c-3.146-0.799-5.084-2.465-5.165-2.535
			l-28.26-27.426l0.349-0.358l28.25,27.417c0.066,0.057,7.704,6.521,16.924-0.418c10.458-7.87,43.007-33.511,43.335-33.769
			l0.31,0.393C100.554,39.194,68,64.838,57.537,72.711C54.143,75.266,50.969,76.038,48.373,76.038z"/>
		<path id="XMLID_706_" fill="#FFFFFF" d="M48.488,78.213c-4.729,0-8.434-2.476-8.49-2.514l-27.92-27.295l0.35-0.357l27.886,27.267
			c0.049,0.028,8.326,5.546,15.775-0.251c8.437-6.566,43.408-33.636,43.761-33.909l0.306,0.396
			c-0.352,0.272-35.323,27.342-43.76,33.908C53.731,77.531,50.968,78.213,48.488,78.213z"/>
	</g>
</g>
</svg>
