<?xml version="1.0" encoding="utf-8"?>
<!-- Generator: Adobe Illustrator 17.0.0, SVG Export Plug-In . SVG Version: 6.00 Build 0)  -->
<!DOCTYPE svg PUBLIC "-//W3C//DTD SVG 1.0//EN" "http://www.w3.org/TR/2001/REC-SVG-20010904/DTD/svg10.dtd">
<svg version="1.0" id="Layer_1" xmlns="http://www.w3.org/2000/svg" xmlns:xlink="http://www.w3.org/1999/xlink" x="0px" y="0px"
	 width="142.388px" height="127.333px" viewBox="0 0 142.388 127.333" enable-background="new 0 0 142.388 127.333"
	 xml:space="preserve">
<g id="XMLID_292_">
	<path fill="#C4D03E" d="M61.266,118.929h-7.037l20.937-44.955l-25.89-1.926L38.023,84.645H25.807l12.487-21.004l-12.65-19.344
		h12.371l11.26,12.597l25.887-1.922L54.224,10.238h7.042c2.912,0,5.858,1.874,8.757,5.57l32.44,37.986l4.986,0.356
		c11.58,0.978,17.441,4.487,17.441,10.433c0,2.189-1.075,4.182-3.196,5.919c-1.924,1.576-3.916,2.629-5.921,3.128
		c-1.884,0.471-3.375,0.769-4.56,0.91c-1.114,0.132-2.337,0.288-3.668,0.467l-5.082,0.366l-32.483,38.035
		C67.127,117.055,64.18,118.929,61.266,118.929z M59.167,115.783h2.1c1.897,0,4.01-1.469,6.28-4.366l33.38-39.088l6.299-0.45
		c1.252-0.171,2.49-0.329,3.617-0.463c1.036-0.124,2.439-0.406,4.169-0.838c1.551-0.387,3.129-1.231,4.689-2.51
		c1.375-1.126,2.044-2.267,2.044-3.484c0-4.026-4.892-6.48-14.54-7.295l-6.278-0.449L67.589,17.8
		c-2.313-2.947-4.426-4.416-6.322-4.416h-2.095l20.775,44.389l-31.984,2.375L36.607,47.444h-5.145l10.54,16.117L31.339,81.498h5.275
		l11.348-12.704l31.979,2.379L59.167,115.783z"/>
</g>
</svg>
