<?xml version="1.0" encoding="utf-8"?>
<!-- Generator: Adobe Illustrator 17.0.0, SVG Export Plug-In . SVG Version: 6.00 Build 0)  -->
<!DOCTYPE svg PUBLIC "-//W3C//DTD SVG 1.0//EN" "http://www.w3.org/TR/2001/REC-SVG-20010904/DTD/svg10.dtd">
<svg version="1.0" id="Layer_1" xmlns="http://www.w3.org/2000/svg" xmlns:xlink="http://www.w3.org/1999/xlink" x="0px" y="0px"
	 width="141.333px" height="122px" viewBox="0 0 141.333 122" enable-background="new 0 0 141.333 122" xml:space="preserve">
<g id="XMLID_290_">
	<g id="XMLID_291_">
		<path fill="#C4D03E" d="M130.975,105.121H78.251c-0.869,0-1.573-0.704-1.573-1.573V71.497c0-0.869,0.704-1.573,1.573-1.573
			c0.085,0,0.168,0.006,0.249,0.02h21.738c1.656,0,3.004-1.54,3.004-3.434V56.089c0-1.894-1.348-3.434-3.004-3.434H78.251
			c-0.869,0-1.573-0.704-1.573-1.573V40.851c0-0.939,0.866-1.699,1.781-1.56h16.283c0.42,0,0.822,0.167,1.117,0.466
			c0.296,0.298,0.46,0.701,0.456,1.121l-0.018,2.034c0.078,0.108,0.201,0.241,0.362,0.304c0.262,0.106,0.625,0.021,0.93-0.094
			c1.098-1.039,5.631-6.919,9.556-12.243c0.047-0.063,0.098-0.123,0.152-0.178c-0.032-0.073-0.095-0.186-0.213-0.339
			c-0.792-1.036-7.77-10.339-9.117-12.137c-0.391-0.176-1.142-0.412-1.796-0.027v2.231c0,0.869-0.704,1.573-1.573,1.573H78.251
			c-0.869,0-1.573-0.704-1.573-1.573v-5.64c0-2.783-2.265-5.048-5.049-5.048h-3.104c-2.784,0-5.049,2.265-5.049,5.048v5.64
			c0,0.869-0.704,1.573-1.573,1.573H39.915c-1.656,0-3.004,1.54-3.004,3.434v10.421c0,1.894,1.348,3.434,3.004,3.434h21.779
			c0.912-0.138,1.781,0.62,1.781,1.56c0,0.007,0,0.014,0,0.021l-0.009,1.337c-0.015,2.101-0.054,7.501-0.02,8.575
			c0.036,0.188,0.038,0.383,0.004,0.575c-0.144,0.805-0.879,1.398-1.7,1.311c-0.04-0.003-0.079-0.008-0.117-0.014H45.555
			c-0.869,0-1.573-0.704-1.573-1.573v-2.23c-0.661-0.388-1.421-0.144-1.794,0.025c-1.317,1.755-8.335,11.111-9.113,12.131
			c-0.119,0.153-0.182,0.266-0.216,0.339c0.05,0.051,0.092,0.106,0.149,0.185c3.921,5.319,8.45,11.193,9.557,12.243
			c0.305,0.115,0.665,0.197,0.929,0.094c0.16-0.062,0.281-0.194,0.361-0.307l-0.017-2.031c-0.004-0.42,0.16-0.823,0.456-1.122
			c0.295-0.298,0.697-0.465,1.117-0.465h16.242c0.081-0.014,0.164-0.02,0.249-0.02c0.869,0,1.573,0.704,1.573,1.573v32.051
			c0,0.869-0.704,1.573-1.573,1.573H9.025v-3.146h51.304V73.09H46.998l0.007,0.844c0.002,0.19-0.031,0.38-0.097,0.559
			c-0.061,0.164-0.637,1.62-2.179,2.271c-0.753,0.315-1.991,0.539-3.637-0.192c-0.105-0.048-0.207-0.106-0.3-0.176
			c-1.494-1.114-8.049-9.921-10.208-12.847c-0.384-0.357-0.762-0.925-0.876-1.649c-0.1-0.638-0.031-1.642,0.87-2.807
			c0.851-1.116,9.304-12.387,9.304-12.387c0.12-0.161,0.271-0.297,0.442-0.401c1.288-0.779,4.283-1.619,6.411,0.796
			c0.253,0.287,0.393,0.657,0.393,1.04v1.369h13.159c-0.001-0.526-0.001-1.147,0.001-1.812c0.005-1.769,0.02-3.848,0.03-5.259
			H39.915c-3.392,0-6.151-2.951-6.151-6.58V25.437c0-3.629,2.759-6.58,6.151-6.58h20.414V14.79c0-4.519,3.676-8.194,8.195-8.194
			h3.104c4.52,0,8.195,3.676,8.195,8.194v4.066h13.201v-1.369c0-0.383,0.14-0.753,0.393-1.04c2.125-2.415,5.124-1.576,6.41-0.796
			c0.172,0.104,0.323,0.24,0.443,0.401c0.085,0.113,8.465,11.287,9.31,12.393c0.896,1.16,0.964,2.165,0.863,2.803
			c-0.114,0.724-0.492,1.291-0.876,1.647c-2.159,2.927-8.714,11.732-10.207,12.847c-0.094,0.07-0.195,0.13-0.302,0.177
			c-1.645,0.731-2.886,0.509-3.636,0.191c-1.543-0.649-2.118-2.104-2.179-2.269c-0.066-0.179-0.1-0.369-0.098-0.56l0.007-0.845
			h-13.33v7.071h20.414c3.392,0,6.15,2.951,6.15,6.58V66.51c0,3.629-2.759,6.58-6.15,6.58H79.824v28.885h51.15V105.121z"/>
	</g>
</g>
</svg>
