<?xml version="1.0" encoding="utf-8"?>
<!-- Generator: Adobe Illustrator 17.0.0, SVG Export Plug-In . SVG Version: 6.00 Build 0)  -->
<!DOCTYPE svg PUBLIC "-//W3C//DTD SVG 1.0//EN" "http://www.w3.org/TR/2001/REC-SVG-20010904/DTD/svg10.dtd">
<svg version="1.0" id="Layer_1" xmlns="http://www.w3.org/2000/svg" xmlns:xlink="http://www.w3.org/1999/xlink" x="0px" y="0px"
	 width="139.151px" height="108.128px" viewBox="0 0 139.151 108.128" enable-background="new 0 0 139.151 108.128"
	 xml:space="preserve">
<g id="XMLID_568_">
	<g id="XMLID_569_">
		<path fill="#69BF70" d="M36.243,87.788c-0.004,0-0.007,0-0.011,0c-0.714-0.007-1.457-0.205-2.21-0.589
			c-1.916-0.982-3.327-2.437-4.197-4.324c-0.91-1.981-0.868-3.969,0.125-5.911c0.899-1.753,2.571-3.404,4.971-4.907l36.55-22.742
			l-0.065-4.089c0-0.06-0.001-0.241-0.047-0.316l-2.021-1.035c-2.768-1.417-4.654-3.663-5.607-6.674
			c-0.957-3.008-0.704-5.975,0.753-8.815c1.455-2.841,3.714-4.779,6.716-5.76c2.997-0.979,5.944-0.756,8.7,0.656
			c2.402,1.232,4.252,3.287,5.499,6.109c1.282,2.904,1.3,5.613,0.051,8.052c-0.731,1.427-1.675,2.15-2.806,2.15
			c-0.431,0-0.868-0.112-1.302-0.334c-1.183-0.609-1.33-2.302-1.339-3.522c-0.041-2.51-0.164-3.617-0.261-4.102
			c-0.356-1.326-1.122-2.303-2.325-2.917c-1.27-0.651-2.59-0.703-4.052-0.167c-1.493,0.547-2.516,1.393-3.126,2.587
			c-0.747,1.458-0.752,2.788-0.014,4.066c0.815,1.414,2.532,2.798,5.101,4.114c2.094,1.073,3.046,2.039,3.086,3.132l0.125,6.659
			l37.871,23.087c6,3.658,5.639,7.59,4.28,10.245c-1.396,2.726-3.239,4.13-5.478,4.174l-78.952,1.175
			C36.254,87.788,36.248,87.788,36.243,87.788z M73.246,43.872c0.185,0.336,0.314,0.775,0.312,1.342l0.074,4.675
			c0.006,0.378-0.187,0.731-0.508,0.931L36.06,73.882c-2.063,1.292-3.476,2.66-4.195,4.062c-0.687,1.343-0.715,2.661-0.085,4.03
			c0.672,1.458,1.727,2.541,3.223,3.308c0.447,0.229,0.864,0.348,1.239,0.354l78.932-1.175c1.399-0.027,2.578-1.01,3.599-3.003
			c0.889-1.735,1.493-4.392-3.484-7.427L76.913,50.636c-0.314-0.191-0.509-0.53-0.517-0.898L76.26,42.51
			c-0.002,0.03-0.188-0.395-1.915-1.28c-2.985-1.529-4.943-3.149-5.984-4.954c-1.116-1.934-1.129-3.994-0.038-6.122
			c0.857-1.675,2.305-2.895,4.302-3.626c2.017-0.739,3.981-0.646,5.772,0.272c1.751,0.896,2.908,2.357,3.439,4.346
			c0.184,0.912,0.282,2.382,0.318,4.564c0.008,1.158,0.174,1.559,0.231,1.663c0.098,0.043,0.187,0.067,0.257,0.067
			c0.239,0,0.581-0.375,0.89-0.979c0.953-1.859,0.919-3.888-0.104-6.201c-1.042-2.359-2.561-4.063-4.512-5.064
			c-2.247-1.152-4.6-1.326-7.051-0.525c-2.477,0.81-4.266,2.346-5.469,4.696c-1.205,2.35-1.407,4.699-0.617,7.183
			c0.785,2.479,2.27,4.248,4.537,5.41l2.091,1.071c0.014,0.006,0.028,0.013,0.042,0.02c0.027,0.014,0.058,0.03,0.091,0.048
			l0.133,0.068l-0.003,0.006C72.895,43.309,73.161,43.527,73.246,43.872z M48.453,83.163c-10.646,0-11.169-0.269-11.552-0.464
			c-1.062-0.544-1.779-1.129-2.192-1.787c-0.504-0.803-0.54-1.717-0.102-2.572c0.304-0.595,0.938-1.834,17.624-11.979l19.464-11.656
			c1.61-0.972,3.333-1.043,4.972-0.205c4.723,2.418,10.976,5.937,18.584,10.458c6.189,3.725,12.352,7.434,18.483,11.13
			c2.603,1.587,2.258,3.258,1.821,4.112c-0.682,1.332-2.251,1.999-4.798,2.04c-12.84,0.216-25.65,0.443-38.433,0.686
			C62.192,83.083,54.162,83.163,48.453,83.163z M37.815,80.749c0.394,0.086,2.229,0.262,10.638,0.262
			c5.698,0,13.718-0.08,23.835-0.237c12.78-0.243,25.593-0.47,38.434-0.686c1.585-0.026,2.648-0.343,2.918-0.869
			c0.173-0.338-0.17-0.773-1.021-1.292c-6.127-3.693-12.287-7.401-18.472-11.124c-7.564-4.495-13.777-7.991-18.461-10.389
			c-0.993-0.508-1.887-0.466-2.882,0.133L53.342,68.203c-14.28,8.682-16.53,10.685-16.835,11.143
			c-0.09,0.178-0.067,0.277,0.023,0.421C36.64,79.942,36.952,80.297,37.815,80.749z"/>
	</g>
</g>
</svg>
