<?xml version="1.0" encoding="utf-8"?>
<!-- Generator: Adobe Illustrator 17.0.0, SVG Export Plug-In . SVG Version: 6.00 Build 0)  -->
<!DOCTYPE svg PUBLIC "-//W3C//DTD SVG 1.0//EN" "http://www.w3.org/TR/2001/REC-SVG-20010904/DTD/svg10.dtd">
<svg version="1.0" id="Layer_1" xmlns="http://www.w3.org/2000/svg" xmlns:xlink="http://www.w3.org/1999/xlink" x="0px" y="0px"
	 width="110px" height="122px" viewBox="0 0 110 122" enable-background="new 0 0 110 122" xml:space="preserve">
<g id="XMLID_582_">
	<path fill="#69BF70" d="M86.831,62.458l-2.387-1.186c1.8-3.622,2.713-7.537,2.713-11.637c0-14.574-11.846-26.431-26.405-26.431
		c-14.574,0-26.432,11.857-26.432,26.431c0,4.081,0.904,7.999,2.688,11.644l-2.393,1.171c-1.964-4.013-2.959-8.324-2.959-12.815
		c0-16.043,13.052-29.095,29.096-29.095c16.029,0,29.069,13.052,29.069,29.095C89.821,54.15,88.815,58.464,86.831,62.458z"/>
</g>
<g id="XMLID_579_">
	<polygon fill="#69BF70" points="60.123,111.418 34.502,62.177 36.865,60.948 60.178,105.751 84.533,61.077 86.873,62.352 	"/>
</g>
<g id="XMLID_576_">
	<path fill="#69BF70" d="M60.965,64.624c-8.999,0-16.319-7.321-16.319-16.32s7.32-16.32,16.319-16.32s16.32,7.321,16.32,16.32
		S69.964,64.624,60.965,64.624z M60.965,34.648c-7.529,0-13.655,6.126-13.655,13.656s6.126,13.656,13.655,13.656
		c7.53,0,13.656-6.126,13.656-13.656S68.495,34.648,60.965,34.648z"/>
</g>
<g id="XMLID_573_">
	<path fill="#69BF70" d="M60.965,58.795c-5.785,0-10.491-4.706-10.491-10.491s4.706-10.491,10.491-10.491
		s10.491,4.706,10.491,10.491S66.75,58.795,60.965,58.795z M60.965,40.477c-4.315,0-7.827,3.511-7.827,7.827
		s3.512,7.827,7.827,7.827s7.827-3.511,7.827-7.827S65.28,40.477,60.965,40.477z"/>
</g>
</svg>
