<?xml version="1.0" encoding="utf-8"?>
<!-- Generator: Adobe Illustrator 17.0.0, SVG Export Plug-In . SVG Version: 6.00 Build 0)  -->
<!DOCTYPE svg PUBLIC "-//W3C//DTD SVG 1.0//EN" "http://www.w3.org/TR/2001/REC-SVG-20010904/DTD/svg10.dtd">
<svg version="1.0" id="Layer_1" xmlns="http://www.w3.org/2000/svg" xmlns:xlink="http://www.w3.org/1999/xlink" x="0px" y="0px"
	 width="133.415px" height="114px" viewBox="0 0 133.415 114" enable-background="new 0 0 133.415 114" xml:space="preserve">
<g id="XMLID_585_">
	<g id="XMLID_597_">
		<path fill="#69BF70" d="M107.079,101.661H31.065c-3.933,0-7.132-3.199-7.132-7.132V40.413c0-3.933,3.2-7.132,7.132-7.132h76.014
			c3.932,0,7.132,3.199,7.132,7.132v54.116C114.211,98.461,111.011,101.661,107.079,101.661z M31.065,35.433
			c-2.746,0-4.98,2.234-4.98,4.979v54.116c0,2.746,2.234,4.979,4.98,4.979h76.014c2.746,0,4.979-2.234,4.979-4.979V40.413
			c0-2.746-2.234-4.979-4.979-4.979H31.065z"/>
	</g>
	<g id="XMLID_588_">
		<g id="XMLID_596_">
			<path fill="#69BF70" d="M40.765,34.961c-0.006,0-0.012,0-0.018,0c-0.297-0.01-0.53-0.258-0.52-0.555
				c0.001-0.047,0.129-4.725-1.776-6.693c-0.541-0.558-1.181-0.83-1.958-0.83c-4.005,0-4.884,7.458-4.893,7.533
				c-0.033,0.295-0.286,0.507-0.594,0.475c-0.295-0.033-0.508-0.299-0.475-0.594c0.039-0.347,0.997-8.491,5.962-8.491
				c1.07,0,1.989,0.39,2.733,1.159c2.222,2.297,2.084,7.265,2.077,7.475C41.293,34.732,41.054,34.961,40.765,34.961z"/>
		</g>
		<g id="XMLID_595_">
			<path fill="#69BF70" d="M49.845,34.961c-0.006,0-0.012,0-0.018,0c-0.297-0.01-0.53-0.258-0.52-0.555
				c0.001-0.047,0.129-4.725-1.776-6.693c-0.541-0.558-1.181-0.83-1.958-0.83c-4.005,0-4.884,7.458-4.893,7.533
				c-0.033,0.295-0.287,0.507-0.594,0.475c-0.295-0.033-0.508-0.299-0.475-0.594c0.039-0.347,0.997-8.491,5.962-8.491
				c1.07,0,1.989,0.39,2.733,1.159c2.222,2.297,2.084,7.265,2.077,7.475C50.372,34.732,50.134,34.961,49.845,34.961z"/>
		</g>
		<g id="XMLID_594_">
			<path fill="#69BF70" d="M58.925,34.961c-0.006,0-0.012,0-0.018,0c-0.297-0.01-0.53-0.258-0.52-0.555
				c0.001-0.047,0.129-4.725-1.776-6.693c-0.541-0.558-1.181-0.83-1.958-0.83c-4.005,0-4.884,7.458-4.893,7.533
				c-0.033,0.295-0.289,0.507-0.594,0.475c-0.295-0.033-0.508-0.299-0.475-0.594c0.039-0.347,0.997-8.491,5.962-8.491
				c1.07,0,1.989,0.39,2.733,1.159c2.222,2.297,2.084,7.265,2.077,7.475C59.452,34.732,59.213,34.961,58.925,34.961z"/>
		</g>
		<g id="XMLID_593_">
			<path fill="#69BF70" d="M68.005,34.961c-0.006,0-0.012,0-0.018,0c-0.297-0.01-0.53-0.258-0.52-0.555
				c0.001-0.047,0.129-4.725-1.777-6.693c-0.541-0.558-1.181-0.83-1.958-0.83c-4.005,0-4.884,7.458-4.893,7.533
				c-0.033,0.295-0.29,0.507-0.594,0.475c-0.295-0.033-0.508-0.299-0.475-0.594c0.039-0.347,0.997-8.491,5.962-8.491
				c1.07,0,1.989,0.39,2.733,1.159c2.222,2.297,2.084,7.265,2.078,7.475C68.532,34.732,68.293,34.961,68.005,34.961z"/>
		</g>
		<g id="XMLID_592_">
			<path fill="#69BF70" d="M77.084,34.961c-0.006,0-0.012,0-0.018,0c-0.297-0.01-0.53-0.258-0.52-0.555
				c0.001-0.047,0.129-4.725-1.777-6.693c-0.541-0.558-1.181-0.83-1.958-0.83c-4.005,0-4.884,7.458-4.893,7.533
				c-0.033,0.295-0.284,0.507-0.594,0.475c-0.295-0.033-0.508-0.299-0.475-0.594c0.039-0.347,0.997-8.491,5.962-8.491
				c1.07,0,1.989,0.39,2.733,1.159c2.222,2.297,2.084,7.265,2.078,7.475C77.612,34.732,77.373,34.961,77.084,34.961z"/>
		</g>
		<g id="XMLID_591_">
			<path fill="#69BF70" d="M86.164,34.961c-0.006,0-0.012,0-0.018,0c-0.297-0.01-0.53-0.258-0.52-0.555
				c0.001-0.047,0.129-4.725-1.776-6.693c-0.541-0.558-1.182-0.83-1.959-0.83c-4.005,0-4.884,7.458-4.893,7.533
				c-0.033,0.295-0.286,0.507-0.594,0.475c-0.295-0.033-0.508-0.299-0.475-0.594c0.039-0.347,0.997-8.491,5.962-8.491
				c1.07,0,1.989,0.39,2.733,1.159c2.222,2.297,2.084,7.265,2.077,7.475C86.691,34.732,86.452,34.961,86.164,34.961z"/>
		</g>
		<g id="XMLID_590_">
			<path fill="#69BF70" d="M95.243,34.961c-0.006,0-0.012,0-0.018,0c-0.297-0.01-0.53-0.258-0.52-0.555
				c0.001-0.047,0.129-4.725-1.776-6.693c-0.541-0.558-1.182-0.83-1.959-0.83c-4.005,0-4.884,7.458-4.893,7.533
				c-0.033,0.295-0.287,0.507-0.594,0.475c-0.295-0.033-0.508-0.299-0.475-0.594c0.039-0.347,0.998-8.491,5.962-8.491
				c1.07,0,1.989,0.39,2.733,1.159c2.222,2.297,2.084,7.265,2.077,7.475C95.771,34.732,95.532,34.961,95.243,34.961z"/>
		</g>
		<g id="XMLID_589_">
			<path fill="#69BF70" d="M104.323,34.961c-0.006,0-0.012,0-0.018,0c-0.297-0.01-0.53-0.258-0.52-0.555
				c0.001-0.047,0.129-4.725-1.776-6.693c-0.541-0.558-1.182-0.83-1.959-0.83c-4.011,0-4.884,7.458-4.892,7.533
				c-0.032,0.295-0.296,0.515-0.594,0.476c-0.295-0.033-0.508-0.298-0.476-0.594c0.039-0.347,0.997-8.491,5.961-8.491
				c1.07,0,1.989,0.39,2.733,1.159c2.222,2.297,2.084,7.265,2.077,7.475C104.85,34.732,104.612,34.961,104.323,34.961z"/>
		</g>
	</g>
	<g id="XMLID_587_">
		<path fill="#69BF70" d="M99.339,92.143H38.806c-3.099,0-5.62-2.521-5.62-5.62V48.418c0-3.099,2.521-5.62,5.62-5.62h60.533
			c3.099,0,5.62,2.521,5.62,5.62v38.105C104.958,89.622,102.437,92.143,99.339,92.143z M38.806,44.951
			c-1.912,0-3.468,1.555-3.468,3.467v38.105c0,1.912,1.556,3.467,3.468,3.467h60.533c1.912,0,3.467-1.555,3.467-3.467V48.418
			c0-1.912-1.555-3.467-3.467-3.467H38.806z"/>
	</g>
	<g id="XMLID_586_">
		<path fill="#69BF70" d="M68.986,82.106c-0.227,0-0.454-0.072-0.646-0.215c-0.51-0.383-12.499-9.475-12.499-18.208
			c0-4.336,3.528-7.865,7.864-7.865c1.969,0,3.837,0.743,5.28,2.072c1.442-1.329,3.311-2.072,5.28-2.072
			c4.336,0,7.865,3.528,7.865,7.865c0,8.734-11.989,17.826-12.499,18.208C69.44,82.034,69.213,82.106,68.986,82.106z M63.706,57.97
			c-3.15,0-5.712,2.562-5.712,5.712c0,6.597,8.546,13.995,10.992,15.977c2.446-1.982,10.992-9.38,10.992-15.977
			c0-3.15-2.562-5.712-5.712-5.712c-1.721,0-3.339,0.789-4.439,2.165c-0.204,0.255-0.514,0.404-0.84,0.404l0,0
			c-0.327,0-0.636-0.149-0.84-0.404C67.045,58.759,65.427,57.97,63.706,57.97z"/>
	</g>
</g>
</svg>
