<?xml version="1.0" encoding="utf-8"?>
<!-- Generator: Adobe Illustrator 17.0.0, SVG Export Plug-In . SVG Version: 6.00 Build 0)  -->
<!DOCTYPE svg PUBLIC "-//W3C//DTD SVG 1.0//EN" "http://www.w3.org/TR/2001/REC-SVG-20010904/DTD/svg10.dtd">
<svg version="1.0" id="Layer_1" xmlns="http://www.w3.org/2000/svg" xmlns:xlink="http://www.w3.org/1999/xlink" x="0px" y="0px"
	 width="35px" height="70px" viewBox="0.25 0 35 70" enable-background="new 0.25 0 35 70" xml:space="preserve">
<g id="XMLID_22_">
	<path fill="#C9C1B0" d="M22.816,19.132c0-2.797-2.271-5.069-5.07-5.069c-2.798,0-5.07,2.272-5.07,5.069
		c0,2.8,2.272,5.068,5.07,5.068C20.545,24.2,22.816,21.932,22.816,19.132z M23.939,33.492v-3.098c0-3.42-2.771-6.194-6.193-6.194
		c-3.42,0-6.194,2.774-6.194,6.194v3.098c0,1.029-0.479,2.547-1.073,3.391L6.892,41.98c-0.592,0.842-0.24,1.524,0.792,1.524h3.423
		c1.03,0,1.866,0.837,1.866,1.868v4.943c0,1.081,0.874,1.956,1.954,1.956s1.956-0.875,1.956-1.956v-4.943
		c0-1.031,0.388-1.868,0.864-1.868c0.478,0,0.864,0.837,0.864,1.868v4.943c0,1.081,0.878,1.956,1.957,1.956
		c1.08,0,1.953-0.875,1.953-1.956v-4.943c0-1.031,0.836-1.868,1.867-1.868h3.424c1.029,0,1.382-0.683,0.791-1.524l-3.588-5.097
		C24.421,36.039,23.939,34.522,23.939,33.492z"/>
</g>
</svg>
