<?xml version="1.0" encoding="utf-8"?>
<!-- Generator: Adobe Illustrator 17.0.0, SVG Export Plug-In . SVG Version: 6.00 Build 0)  -->
<!DOCTYPE svg PUBLIC "-//W3C//DTD SVG 1.0//EN" "http://www.w3.org/TR/2001/REC-SVG-20010904/DTD/svg10.dtd">
<svg version="1.0" id="Layer_1" xmlns="http://www.w3.org/2000/svg" xmlns:xlink="http://www.w3.org/1999/xlink" x="0px" y="0px"
	 width="35px" height="70px" viewBox="0.06 0 35 70" enable-background="new 0.06 0 35 70" xml:space="preserve">
<path id="XMLID_411_" fill="#C9C1B0" d="M22.569,22.516c0-2.797-2.27-5.069-5.069-5.069s-5.069,2.272-5.069,5.069
	c0,2.8,2.27,5.068,5.069,5.068S22.569,25.316,22.569,22.516z M10.007,35.078v7.024c0,1.029,0.606,1.865,1.359,1.865
	c0.752,0,1.36,0.835,1.36,1.867v7.865c0,1.081,0.876,1.956,1.954,1.956c1.079,0,1.958-0.875,1.958-1.956v-7.865
	c0-1.032,0.386-1.867,0.862-1.867c0.477,0,0.865,0.835,0.865,1.867v7.865c0,1.081,0.875,1.956,1.955,1.956s1.956-0.875,1.956-1.956
	v-7.865c0-1.032,0.607-1.867,1.361-1.867c0.75,0,1.358-0.836,1.358-1.865v-7.024c0-4.136-3.355-7.494-7.495-7.494
	C13.363,27.584,10.007,30.942,10.007,35.078z"/>
</svg>
