<?xml version="1.0" encoding="utf-8"?>
<!-- Generator: Adobe Illustrator 17.0.0, SVG Export Plug-In . SVG Version: 6.00 Build 0)  -->
<!DOCTYPE svg PUBLIC "-//W3C//DTD SVG 1.0//EN" "http://www.w3.org/TR/2001/REC-SVG-20010904/DTD/svg10.dtd">
<svg version="1.0" id="Layer_1" xmlns="http://www.w3.org/2000/svg" xmlns:xlink="http://www.w3.org/1999/xlink" x="0px" y="0px"
	 width="78.345px" height="93.333px" viewBox="0 0 78.345 93.333" enable-background="new 0 0 78.345 93.333" xml:space="preserve">
<g id="XMLID_1_">
	<path fill="#C4443B" d="M44.916,79.635c-2.369,0-4.339-1.738-4.701-4.006c-0.362,2.268-2.331,4.006-4.699,4.006
		c-2.622,0-4.756-2.135-4.756-4.759v-8.238c0-0.89-0.723-1.614-1.61-1.614h-5.705c-1.398,0-2.493-0.566-3.006-1.553
		c-0.512-0.987-0.345-2.208,0.46-3.351l5.978-8.495c0.808-1.146,1.516-3.384,1.516-4.787v-5.164c0-4.542,2.574-8.494,6.34-10.474
		c-2.689-1.782-4.467-4.836-4.467-8.297c0-5.486,4.464-9.949,9.95-9.949s9.95,4.463,9.95,9.949c0,3.461-1.777,6.515-4.468,8.297
		c3.766,1.98,6.34,5.932,6.34,10.474v5.164c0,1.398,0.709,3.636,1.519,4.789l5.979,8.493c0.804,1.144,0.971,2.365,0.458,3.352
		s-1.607,1.552-3.003,1.552h-5.706c-0.889,0-1.612,0.725-1.612,1.614v8.238C49.671,77.5,47.538,79.635,44.916,79.635z"/>
	<path fill="#FFFFFF" d="M40.215,14.454c4.666,0,8.45,3.787,8.45,8.449c0,4.667-3.785,8.447-8.45,8.447
		c-4.664,0-8.45-3.78-8.45-8.447C31.765,18.241,35.552,14.454,40.215,14.454 M40.215,31.35c5.703,0,10.322,4.624,10.322,10.324
		v5.163c0,1.715,0.804,4.245,1.791,5.651l5.98,8.495c0.985,1.403,0.397,2.54-1.318,2.54h-5.707c-1.719,0-3.112,1.395-3.112,3.114
		v8.238c0,1.802-1.454,3.26-3.254,3.26c-1.798,0-3.261-1.458-3.261-3.26v-8.238c0-1.719-0.644-3.114-1.44-3.114
		c-0.793,0-1.44,1.395-1.44,3.114v8.238c0,1.802-1.46,3.26-3.26,3.26c-1.8,0-3.256-1.458-3.256-3.26v-8.238
		c0-1.719-1.393-3.114-3.11-3.114h-5.705c-1.719,0-2.307-1.138-1.32-2.54l5.978-8.495c0.991-1.406,1.789-3.936,1.789-5.651v-5.163
		C29.892,35.974,34.516,31.35,40.215,31.35 M40.215,11.454c-6.313,0-11.45,5.136-11.45,11.449c0,3.186,1.308,6.071,3.416,8.149
		c-3.211,2.435-5.289,6.291-5.289,10.622v5.163c0,1.091-0.615,3.034-1.241,3.923l-5.979,8.496c-1.137,1.616-1.343,3.404-0.564,4.905
		c0.779,1.501,2.36,2.362,4.337,2.362h5.705c0.06,0,0.11,0.052,0.11,0.114v8.238c0,3.452,2.807,6.26,6.256,6.26
		c1.87,0,3.552-0.825,4.7-2.129c1.148,1.305,2.83,2.129,4.701,2.129c3.449,0,6.254-2.808,6.254-6.26v-8.238
		c0-0.063,0.05-0.114,0.112-0.114h5.707c1.974,0,3.554-0.86,4.333-2.36c0.78-1.5,0.575-3.288-0.56-4.905l-5.982-8.497
		c-0.627-0.893-1.244-2.838-1.244-3.924v-5.163c0-4.332-2.077-8.187-5.288-10.622c2.108-2.077,3.416-4.963,3.416-8.149
		C51.665,16.59,46.529,11.454,40.215,11.454L40.215,11.454z"/>
</g>
</svg>
