<?xml version="1.0" encoding="utf-8"?>
<!-- Generator: Adobe Illustrator 17.0.0, SVG Export Plug-In . SVG Version: 6.00 Build 0)  -->
<!DOCTYPE svg PUBLIC "-//W3C//DTD SVG 1.0//EN" "http://www.w3.org/TR/2001/REC-SVG-20010904/DTD/svg10.dtd">
<svg version="1.0" id="Layer_1" xmlns="http://www.w3.org/2000/svg" xmlns:xlink="http://www.w3.org/1999/xlink" x="0px" y="0px"
	 width="78px" height="89.333px" viewBox="0 0 78 89.333" enable-background="new 0 0 78 89.333" xml:space="preserve">
<g id="XMLID_418_">
	<path id="XMLID_423_" fill="#FFFFFF" d="M30.234,20.931c0-4.662-3.785-8.449-8.45-8.449c-4.664,0-8.45,3.787-8.45,8.449
		c0,4.667,3.786,8.448,8.45,8.448C26.449,29.378,30.234,25.598,30.234,20.931z M32.105,44.865v-5.163
		c0-5.7-4.619-10.324-10.322-10.324c-5.699,0-10.324,4.624-10.324,10.324v5.163c0,1.715-0.798,4.245-1.789,5.651l-5.978,8.495
		c-0.987,1.403-0.399,2.541,1.32,2.541h5.705c1.717,0,3.11,1.395,3.11,3.114v8.238c0,1.801,1.457,3.26,3.256,3.26
		c1.8,0,3.26-1.458,3.26-3.26v-8.238c0-1.719,0.647-3.114,1.44-3.114c0.796,0,1.44,1.395,1.44,3.114v8.238
		c0,1.801,1.464,3.26,3.261,3.26c1.8,0,3.254-1.458,3.254-3.26v-8.238c0-1.719,1.394-3.114,3.112-3.114h5.707
		c1.715,0,2.303-1.138,1.318-2.541l-5.98-8.495C32.909,49.11,32.105,46.581,32.105,44.865z"/>
	<path id="XMLID_420_" fill="#FFFFFF" d="M68.301,20.931c0-4.662-3.783-8.449-8.448-8.449s-8.448,3.787-8.448,8.449
		c0,4.667,3.783,8.448,8.448,8.448S68.301,25.598,68.301,20.931z M47.365,41.868v11.706c0,1.715,1.01,3.109,2.265,3.109
		c1.253,0,2.267,1.391,2.267,3.112v13.108c0,1.801,1.46,3.26,3.256,3.26c1.798,0,3.263-1.458,3.263-3.26V59.795
		c0-1.721,0.644-3.112,1.437-3.112c0.795,0,1.442,1.391,1.442,3.112v13.108c0,1.801,1.458,3.26,3.258,3.26
		c1.8,0,3.26-1.458,3.26-3.26V59.795c0-1.721,1.012-3.112,2.269-3.112c1.249,0,2.264-1.393,2.264-3.109V41.868
		c0-6.893-5.591-12.49-12.492-12.49C52.958,29.378,47.365,34.975,47.365,41.868z"/>
	<path id="XMLID_419_" fill="#FFFFFF" d="M40.459,52.003c-0.735,0-1.442-0.293-1.961-0.818L24.771,37.333
		c-1.074-1.083-1.066-2.832,0.018-3.905c1.083-1.074,2.831-1.066,3.905,0.018l11.597,11.703l8.503-10.119
		c0.981-1.167,2.722-1.319,3.891-0.337c1.168,0.981,1.318,2.723,0.337,3.891l-10.45,12.435c-0.5,0.594-1.226,0.951-2.001,0.982
		C40.535,52.002,40.497,52.003,40.459,52.003z"/>
</g>
</svg>
