<?xml version="1.0" encoding="utf-8"?>
<!-- Generator: Adobe Illustrator 17.0.0, SVG Export Plug-In . SVG Version: 6.00 Build 0)  -->
<!DOCTYPE svg PUBLIC "-//W3C//DTD SVG 1.0//EN" "http://www.w3.org/TR/2001/REC-SVG-20010904/DTD/svg10.dtd">
<svg version="1.0" id="Layer_1" xmlns="http://www.w3.org/2000/svg" xmlns:xlink="http://www.w3.org/1999/xlink" x="0px" y="0px"
	 width="55px" height="78.667px" viewBox="16.672 0 55 78.667" enable-background="new 16.672 0 55 78.667" xml:space="preserve">
<path id="XMLID_16_" fill="#C4443B" stroke="#FFFFFF" stroke-width="3" stroke-linejoin="round" stroke-miterlimit="10" d="
	M52.226,14.583c0-4.662-3.783-8.449-8.448-8.449s-8.448,3.787-8.448,8.449c0,4.667,3.783,8.448,8.448,8.448
	C48.444,23.031,52.226,19.251,52.226,14.583z M31.29,35.521v11.706c0,1.715,1.01,3.109,2.265,3.109c1.253,0,2.267,1.391,2.267,3.112
	v13.109c0,1.801,1.46,3.259,3.256,3.259c1.798,0,3.263-1.458,3.263-3.259V53.448c0-1.721,0.644-3.112,1.436-3.112
	c0.795,0,1.442,1.391,1.442,3.112v13.109c0,1.801,1.458,3.259,3.258,3.259s3.26-1.458,3.26-3.259V53.448
	c0-1.721,1.012-3.112,2.269-3.112c1.25,0,2.264-1.394,2.264-3.109V35.521c0-6.893-5.591-12.49-12.492-12.49
	C36.883,23.031,31.29,28.628,31.29,35.521z"/>
</svg>
