<?xml version="1.0" encoding="utf-8"?>
<!-- Generator: Adobe Illustrator 17.0.0, SVG Export Plug-In . SVG Version: 6.00 Build 0)  -->
<!DOCTYPE svg PUBLIC "-//W3C//DTD SVG 1.0//EN" "http://www.w3.org/TR/2001/REC-SVG-20010904/DTD/svg10.dtd">
<svg version="1.0" id="Layer_1" xmlns="http://www.w3.org/2000/svg" xmlns:xlink="http://www.w3.org/1999/xlink" x="0px" y="0px"
	 width="70px" height="70px" viewBox="-5.25 0 70 70" enable-background="new -5.25 0 70 70" xml:space="preserve">
<g id="XMLID_403_">
	<path id="XMLID_408_" fill="#C9C1B0" d="M23.973,20.848c0-2.797-2.271-5.07-5.07-5.07c-2.798,0-5.07,2.272-5.07,5.07
		c0,2.8,2.272,5.068,5.07,5.068C21.703,25.916,23.973,23.648,23.973,20.848z M25.096,35.209v-3.098c0-3.42-2.771-6.194-6.193-6.194
		c-3.42,0-6.194,2.775-6.194,6.194v3.098c0,1.029-0.479,2.547-1.073,3.391l-3.587,5.097c-0.592,0.841-0.24,1.524,0.792,1.524h3.423
		c1.03,0,1.866,0.837,1.866,1.868v4.943c0,1.081,0.874,1.956,1.954,1.956s1.956-0.875,1.956-1.956v-4.943
		c0-1.031,0.388-1.868,0.864-1.868c0.478,0,0.864,0.837,0.864,1.868v4.943c0,1.081,0.878,1.956,1.957,1.956
		c1.08,0,1.953-0.875,1.953-1.956v-4.943c0-1.031,0.836-1.868,1.867-1.868h3.424c1.029,0,1.382-0.683,0.791-1.524L26.172,38.6
		C25.579,37.756,25.096,36.238,25.096,35.209z"/>
	<path id="XMLID_405_" fill="#C9C1B0" d="M46.814,20.848c0-2.797-2.27-5.07-5.069-5.07s-5.069,2.272-5.069,5.07
		c0,2.8,2.27,5.068,5.069,5.068C44.545,25.916,46.814,23.648,46.814,20.848z M34.252,33.41v7.024c0,1.029,0.606,1.865,1.359,1.865
		c0.752,0,1.36,0.835,1.36,1.867v7.865c0,1.081,0.876,1.956,1.954,1.956c1.079,0,1.958-0.875,1.958-1.956v-7.865
		c0-1.032,0.386-1.867,0.862-1.867c0.477,0,0.865,0.835,0.865,1.867v7.865c0,1.081,0.875,1.956,1.955,1.956s1.956-0.875,1.956-1.956
		v-7.865c0-1.032,0.607-1.867,1.361-1.867c0.75,0,1.358-0.836,1.358-1.865V33.41c0-4.136-3.355-7.494-7.495-7.494
		C37.608,25.916,34.252,29.275,34.252,33.41z"/>
	<path id="XMLID_404_" fill="#C9C1B0" d="M30.109,39.491c-0.441,0-0.865-0.176-1.177-0.491l-8.236-8.311
		c-0.644-0.65-0.639-1.699,0.011-2.343c0.65-0.645,1.699-0.64,2.343,0.01l6.958,7.022l5.102-6.072
		c0.589-0.7,1.633-0.792,2.335-0.202c0.7,0.589,0.791,1.634,0.202,2.335l-6.27,7.461c-0.3,0.356-0.735,0.57-1.201,0.589
		C30.154,39.491,30.131,39.491,30.109,39.491z"/>
</g>
</svg>
