<?xml version="1.0" encoding="utf-8"?>
<!-- Generator: Adobe Illustrator 17.0.0, SVG Export Plug-In . SVG Version: 6.00 Build 0)  -->
<!DOCTYPE svg PUBLIC "-//W3C//DTD SVG 1.0//EN" "http://www.w3.org/TR/2001/REC-SVG-20010904/DTD/svg10.dtd">
<svg version="1.0" id="Layer_1" xmlns="http://www.w3.org/2000/svg" xmlns:xlink="http://www.w3.org/1999/xlink" x="0px" y="0px"
	 width="72.345px" height="75.333px" viewBox="0 0 72.345 75.333" enable-background="new 0 0 72.345 75.333" xml:space="preserve">
<path id="XMLID_426_" fill="#FFFFFF" d="M46.226,11.25c0-4.662-3.783-8.449-8.448-8.449c-4.665,0-8.448,3.787-8.448,8.449
	c0,4.667,3.783,8.447,8.448,8.447C42.444,19.698,46.226,15.918,46.226,11.25z M25.29,32.188v11.706c0,1.715,1.01,3.109,2.265,3.109
	c1.253,0,2.267,1.392,2.267,3.112v13.108c0,1.801,1.46,3.259,3.256,3.259c1.798,0,3.263-1.458,3.263-3.259V50.114
	c0-1.721,0.644-3.112,1.436-3.112c0.795,0,1.442,1.392,1.442,3.112v13.108c0,1.801,1.458,3.259,3.258,3.259
	c1.8,0,3.26-1.458,3.26-3.259V50.114c0-1.721,1.012-3.112,2.269-3.112c1.25,0,2.264-1.393,2.264-3.109V32.188
	c0-6.893-5.591-12.49-12.492-12.49C30.883,19.698,25.29,25.295,25.29,32.188z"/>
</svg>
