<?xml version="1.0" encoding="utf-8"?>
<!-- Generator: Adobe Illustrator 17.0.0, SVG Export Plug-In . SVG Version: 6.00 Build 0)  -->
<!DOCTYPE svg PUBLIC "-//W3C//DTD SVG 1.0//EN" "http://www.w3.org/TR/2001/REC-SVG-20010904/DTD/svg10.dtd">
<svg version="1.0" id="Layer_1" xmlns="http://www.w3.org/2000/svg" xmlns:xlink="http://www.w3.org/1999/xlink" x="0px" y="0px"
	 width="68px" height="101.333px" viewBox="0 0 68 101.333" enable-background="new 0 0 68 101.333" xml:space="preserve">
<g id="XMLID_429_">
	<g>
		<path fill="#FFFFFF" d="M46.23,26.903c0-4.662-3.785-8.449-8.45-8.449c-4.664,0-8.45,3.787-8.45,8.449
			c0,4.667,3.786,8.447,8.45,8.447C42.445,35.35,46.23,31.57,46.23,26.903z M48.101,50.837v-5.163c0-5.7-4.619-10.324-10.322-10.324
			c-5.699,0-10.323,4.624-10.323,10.324v5.163c0,1.715-0.798,4.245-1.789,5.651l-5.978,8.495c-0.987,1.402-0.399,2.54,1.32,2.54
			h5.705c1.717,0,3.11,1.395,3.11,3.114v8.238c0,1.802,1.456,3.26,3.256,3.26c1.8,0,3.26-1.458,3.26-3.26v-8.238
			c0-1.719,0.647-3.114,1.44-3.114c0.796,0,1.44,1.395,1.44,3.114v8.238c0,1.802,1.464,3.26,3.261,3.26
			c1.8,0,3.254-1.458,3.254-3.26v-8.238c0-1.719,1.394-3.114,3.112-3.114h5.707c1.715,0,2.303-1.138,1.318-2.54l-5.98-8.495
			C48.905,55.082,48.101,52.553,48.101,50.837z"/>
	</g>
</g>
</svg>
