<?xml version="1.0" encoding="utf-8"?>
<!-- Generator: Adobe Illustrator 17.0.0, SVG Export Plug-In . SVG Version: 6.00 Build 0)  -->
<!DOCTYPE svg PUBLIC "-//W3C//DTD SVG 1.0//EN" "http://www.w3.org/TR/2001/REC-SVG-20010904/DTD/svg10.dtd">
<svg version="1.0" id="Layer_1" xmlns="http://www.w3.org/2000/svg" xmlns:xlink="http://www.w3.org/1999/xlink" x="0px" y="0px"
	 width="229.489px" height="209.068px" viewBox="0 0 229.489 209.068" enable-background="new 0 0 229.489 209.068"
	 xml:space="preserve">
<g id="XMLID_550_">
	<g id="XMLID_556_">
		<path fill="#69BF70" d="M118.915,107.509c-0.292,0-0.585-0.064-0.855-0.192L49.102,74.684c-0.846-0.4-1.301-1.333-1.096-2.246
			c0.185-0.822,0.86-1.43,1.677-1.543c2.485-0.536,46.384-13.116,75.451-21.489c0.386-0.111,0.796-0.104,1.178,0.021L194.655,71.9
			c0.792,0.261,1.34,0.985,1.374,1.818c0.034,0.833-0.453,1.601-1.221,1.925l-75.115,31.708
			C119.444,107.456,119.179,107.509,118.915,107.509z M55.717,73.389l63.245,29.929l69.375-29.285l-62.688-20.612
			C81.758,66.063,63.437,71.256,55.717,73.389z"/>
	</g>
	<g id="XMLID_555_">
		<path fill="#69BF70" d="M119.223,195.246c-0.318,0-0.638-0.076-0.929-0.229l-69.266-36.326c-0.659-0.346-1.071-1.028-1.071-1.771
			V72.877c0-1.104,0.896-2,2-2s2,0.896,2,2v82.834l65.266,34.228v-84.121c0-1.104,0.896-2,2-2s2,0.896,2,2v87.429
			c0,0.7-0.366,1.35-0.965,1.711C119.941,195.149,119.582,195.246,119.223,195.246z"/>
	</g>
	<g id="XMLID_554_">
		<path fill="#69BF70" d="M119.223,195.246c-0.353,0-0.706-0.094-1.02-0.279c-0.608-0.36-0.98-1.015-0.98-1.721v-87.429
			c0-1.104,0.896-2,2-2s2,0.896,2,2v84.053l70.191-38.444V74.417c0-1.104,0.896-2,2-2s2,0.896,2,2v78.193
			c0,0.73-0.398,1.403-1.039,1.754L120.184,195C119.885,195.164,119.554,195.246,119.223,195.246z"/>
	</g>
	<g id="XMLID_553_">
		<polygon fill="#69BF70" points="84.475,65.008 148.007,93.522 148.007,177.565 166.516,167.56 166.516,85.518 102.484,59.505 		
			"/>
	</g>
	<g id="XMLID_552_">
		<path fill="#69BF70" d="M163.015,64.007c-2.001,0-74.038,26.513-74.038,26.513v87.044l-16.508-8.504V84.017l73.537-26.013
			L163.015,64.007z"/>
	</g>
	<g id="XMLID_551_">
		<path fill="#69BF70" d="M118.491,80.014c-1.224,0-2.392-0.562-3.155-1.542c-0.432-0.555-1.319-1.709-2.51-3.335
			c-9.013-0.069-15.798-6.551-22.405-12.861C79.912,52.239,69.046,41.86,46.484,51.195c-2.042,0.844-4.381-0.126-5.226-2.167
			s0.125-4.381,2.167-5.226C70.802,32.477,84.743,45.79,95.947,56.49c3.723,3.556,6.813,6.411,9.775,8.262
			c-8.487-13.308-18.679-33.011-14.167-45.324c1.378-3.762,4.771-8.613,13.11-10.361c11.634-2.44,19.964,2.948,23.448,15.171
			c1.063,3.73,1.571,7.756,1.744,11.654c7.585-9.246,16.66-14.482,24.626-15.144c9.682-0.805,17.449,4.802,21.295,15.379
			c2.452,6.744,1.91,13.099-1.612,18.889c-4.99,8.203-15.897,14.905-32.42,19.922c-11.9,3.612-22.303,4.986-22.74,5.043
			C118.835,80.003,118.662,80.014,118.491,80.014z M128.903,52.702c-0.072,0.486-0.141,0.93-0.206,1.328
			c-0.996,6.105-2.672,13.289-5.361,17.159c13.378-2.464,37.075-8.946,43.999-20.336c2.226-3.661,2.529-7.584,0.926-11.992
			c-1.809-4.973-5.551-10.767-13.115-10.141C144.615,29.595,135.027,40.027,128.903,52.702z M109.822,16.499
			c-1.085,0-2.255,0.133-3.516,0.397c-5.149,1.079-6.598,3.531-7.24,5.282c-3.374,9.202,6.939,28.935,16.768,43.367
			c1.339-5.812,3.194-11.112,5.421-15.868c1.265-9.759,1.198-21.306-2.877-28.181C116.383,18.131,113.619,16.499,109.822,16.499z"/>
	</g>
</g>
</svg>
