<?xml version="1.0" encoding="utf-8"?>
<!-- Generator: Adobe Illustrator 17.0.0, SVG Export Plug-In . SVG Version: 6.00 Build 0)  -->
<!DOCTYPE svg PUBLIC "-//W3C//DTD SVG 1.0//EN" "http://www.w3.org/TR/2001/REC-SVG-20010904/DTD/svg10.dtd">
<svg version="1.0" id="Layer_1" xmlns="http://www.w3.org/2000/svg" xmlns:xlink="http://www.w3.org/1999/xlink" x="0px" y="0px"
	 width="52px" height="78.182px" viewBox="0 0 52 78.182" enable-background="new 0 0 52 78.182" xml:space="preserve">
<g id="XMLID_311_">
	<polygon id="XMLID_331_" fill="#C4443B" points="34.922,69.138 37.555,56.689 36.018,56.363 33.971,66.04 26.67,59.007 
		25.58,60.139 	"/>
	<path id="XMLID_330_" fill="#C4443B" d="M29.497,60.33"/>
	<polygon id="XMLID_329_" fill="#C4443B" points="33.226,59.624 33.979,58.267 35.796,59.276 36.56,57.903 33.368,56.13 
		31.852,58.862 	"/>
	<polygon id="XMLID_328_" fill="#C4443B" points="28.708,61.233 29.669,59.502 30.989,60.235 31.753,58.862 29.059,57.365 
		27.334,60.469 	"/>
	<g id="XMLID_325_">
		
			<rect id="XMLID_327_" x="31.339" y="59.125" transform="matrix(-0.4723 0.8814 -0.8814 -0.4723 100.1702 59.8797)" fill="#C4443B" width="1.644" height="1.6"/>
		
			<rect id="XMLID_326_" x="31.339" y="59.125" transform="matrix(-0.4723 0.8814 -0.8814 -0.4723 100.1702 59.8797)" fill-rule="evenodd" clip-rule="evenodd" fill="#C4443B" width="1.644" height="1.6"/>
	</g>
	<g id="XMLID_322_">
		
			<rect id="XMLID_324_" x="31.339" y="59.125" transform="matrix(-0.4723 0.8814 -0.8814 -0.4723 100.1702 59.8797)" fill="#C4443B" width="1.644" height="1.6"/>
		
			<rect id="XMLID_323_" x="31.339" y="59.125" transform="matrix(-0.4723 0.8814 -0.8814 -0.4723 100.1702 59.8797)" fill-rule="evenodd" clip-rule="evenodd" fill="#C4443B" width="1.644" height="1.6"/>
	</g>
	<g id="XMLID_319_">
		
			<rect id="XMLID_321_" x="30.483" y="58.691" transform="matrix(-0.4447 0.8957 -0.8957 -0.4447 98.4591 57.9368)" fill="#C4443B" width="1.574" height="1.598"/>
		
			<rect id="XMLID_320_" x="30.483" y="58.691" transform="matrix(-0.4447 0.8957 -0.8957 -0.4447 98.4591 57.9368)" fill="#C4443B" width="1.574" height="1.598"/>
	</g>
	<path id="XMLID_316_" fill="#C4443B" d="M14.727,22.127c-0.507-1.774-0.367-3.616,0.393-5.18c0.762-1.609,2.08-2.751,3.711-3.217
		c1.255-0.359,2.579-0.276,3.83,0.241c1.936,0.8,3.46,2.566,4.076,4.724l1.403,4.911l-12.009,3.432L14.727,22.127z M25.225,19.127
		c-0.486-1.701-1.669-3.085-3.165-3.704c-0.919-0.38-1.886-0.442-2.798-0.182c-1.19,0.34-2.156,1.185-2.725,2.385
		c-0.593,1.222-0.7,2.667-0.298,4.069l0.972,3.399l8.986-2.568L25.225,19.127z"/>
	
		<rect id="XMLID_315_" x="18.004" y="26.721" transform="matrix(-0.9615 0.2747 -0.2747 -0.9615 52.7636 47.6233)" fill="#C4443B" width="10.085" height="1.572"/>
	
		<rect id="XMLID_314_" x="18.706" y="29.654" transform="matrix(-0.9615 0.2748 -0.2748 -0.9615 54.9476 53.1816)" fill="#C4443B" width="10.085" height="1.572"/>
	
		<rect id="XMLID_313_" x="31.053" y="21.362" transform="matrix(-0.9616 0.2746 -0.2746 -0.9616 73.2947 68.6987)" fill="#C4443B" width="1.572" height="36.235"/>
	
		<rect id="XMLID_312_" x="20.8" y="26.03" transform="matrix(-0.9616 0.2746 -0.2746 -0.9616 54.2411 79.0738)" fill="#C4443B" width="1.572" height="34.607"/>
</g>
</svg>
